<?xml version="1.0" standalone="no"?>
<!DOCTYPE svg PUBLIC "-//W3C//DTD SVG 20010904//EN"
 "http://www.w3.org/TR/2001/REC-SVG-20010904/DTD/svg10.dtd">
<svg version="1.0" xmlns="http://www.w3.org/2000/svg"
 width="1280.000000pt" height="960.000000pt" viewBox="0 0 1280.000000 960.000000"
 preserveAspectRatio="xMidYMid meet">
<metadata>
Created by potrace 1.15, written by Peter Selinger 2001-2017
</metadata>
<g transform="translate(0.000000,960.000000) scale(0.100000,-0.100000)"
fill="#000000" stroke="none">
<path d="M1371 9557 c24 -24 59 -63 77 -85 18 -23 39 -42 46 -42 7 0 28 -18
46 -40 18 -22 39 -40 45 -40 6 0 42 -30 81 -68 38 -37 80 -72 94 -78 14 -7 61
-45 105 -87 87 -81 226 -188 290 -222 22 -12 59 -39 81 -61 23 -21 72 -66 109
-99 37 -33 100 -93 139 -134 39 -40 122 -125 185 -190 62 -64 132 -138 155
-166 22 -27 57 -66 76 -85 58 -58 103 -118 135 -178 17 -31 41 -73 53 -92 12
-19 22 -42 22 -51 0 -9 10 -21 23 -28 12 -6 45 -29 72 -51 62 -50 180 -107
304 -145 51 -16 96 -35 98 -42 3 -7 -8 -29 -23 -49 -52 -64 -133 -184 -140
-207 -4 -12 -15 -34 -25 -49 -11 -14 -19 -38 -19 -53 0 -15 -9 -37 -19 -49
-11 -11 -32 -35 -48 -53 l-29 -32 -79 8 c-79 8 -95 7 -95 -7 0 -12 78 -42 108
-42 35 0 55 -31 47 -73 -7 -30 -36 -103 -56 -137 -5 -8 -19 -34 -30 -58 -20
-39 -58 -69 -83 -63 -45 10 -65 -52 -22 -68 26 -11 80 -1 114 20 24 14 82 116
82 144 0 9 7 18 15 21 8 4 15 15 15 26 0 10 6 31 14 46 7 15 19 53 26 85 7 38
18 61 31 67 10 6 19 18 19 28 0 9 13 31 30 48 16 18 38 61 50 96 18 57 51 111
121 198 11 14 29 41 39 61 30 58 39 61 101 38 151 -58 186 -71 214 -78 17 -5
48 -15 70 -24 22 -9 63 -20 90 -26 28 -6 82 -20 120 -32 39 -11 103 -27 143
-36 75 -16 88 -27 50 -43 -13 -5 -33 -17 -46 -27 -21 -18 -22 -22 -12 -67 14
-64 -4 -121 -35 -111 -11 4 -47 9 -80 12 -93 7 -172 -43 -108 -68 15 -6 36
-15 46 -21 15 -7 20 -5 24 10 7 28 57 36 89 15 49 -32 56 -61 39 -164 -8 -50
-19 -96 -24 -103 -5 -6 -13 -59 -17 -119 -6 -99 -8 -107 -28 -109 -47 -3 -70
4 -97 32 -36 35 -106 75 -148 83 -31 7 -111 63 -111 78 0 13 -42 71 -73 102
-36 35 -77 37 -77 3 0 -14 5 -28 10 -31 6 -3 10 -17 10 -31 0 -22 18 -45 131
-164 9 -10 18 -23 21 -30 2 -8 25 -15 53 -18 51 -4 91 -25 100 -54 4 -10 17
-21 30 -24 13 -3 26 -12 29 -20 3 -8 21 -14 43 -15 70 -2 85 -11 99 -59 7 -25
22 -70 33 -100 29 -79 47 -190 33 -199 -6 -3 -16 -27 -22 -51 -38 -150 -36
-173 16 -267 19 -34 34 -72 34 -85 0 -33 62 -125 113 -169 40 -35 42 -40 54
-120 15 -109 26 -154 50 -209 11 -25 24 -61 28 -79 13 -59 118 -241 175 -303
30 -33 69 -86 86 -117 16 -31 42 -76 56 -101 14 -25 29 -56 33 -70 4 -14 16
-36 26 -49 11 -13 19 -31 19 -40 0 -9 18 -41 40 -71 22 -30 49 -75 61 -100 45
-95 74 -148 131 -234 32 -48 58 -89 58 -91 0 -10 78 -88 111 -111 21 -15 39
-29 39 -33 0 -6 -80 -51 -92 -51 -4 0 -28 -15 -54 -32 -110 -78 -141 -90 -379
-150 -114 -28 -126 -29 -255 -23 -74 4 -149 13 -166 20 -17 7 -73 25 -125 39
-52 15 -110 34 -129 43 -28 13 -129 30 -198 32 -17 1 -73 59 -174 182 -47 57
-111 124 -143 149 -32 25 -72 57 -90 72 -18 16 -36 28 -39 28 -4 0 -19 11 -33
24 -14 13 -37 30 -52 37 -14 7 -40 23 -57 35 -17 12 -62 32 -100 45 -156 50
-353 137 -353 157 -1 6 -6 12 -12 12 -6 0 -41 18 -79 40 -38 22 -75 40 -83 40
-9 0 -17 3 -19 8 -1 4 -23 17 -48 30 -25 12 -52 27 -60 32 -8 6 -53 28 -100
50 -108 51 -120 61 -163 142 -20 36 -47 82 -61 102 -14 20 -33 58 -42 84 -10
26 -35 74 -56 106 -21 33 -38 65 -38 71 0 7 -12 28 -27 48 -50 65 -80 121 -86
158 -6 38 -40 91 -119 186 -27 31 -48 62 -48 70 0 7 -4 13 -9 13 -8 0 -67 85
-80 113 -1 5 -14 20 -27 34 -13 14 -30 44 -36 67 -7 23 -27 60 -45 84 -18 24
-33 49 -33 55 0 7 -12 30 -27 52 -15 22 -44 74 -65 115 -21 41 -44 85 -52 97
-29 50 -110 150 -139 172 -10 7 -34 38 -53 67 -19 30 -38 54 -43 54 -5 0 -15
19 -24 43 -8 23 -21 57 -28 75 -16 39 -7 58 42 83 18 11 41 28 51 39 9 11 21
20 27 20 27 0 132 62 148 87 10 16 28 37 41 48 15 13 23 33 25 60 2 34 -1 40
-18 40 -14 0 -23 -10 -30 -34 -9 -31 -85 -105 -85 -82 0 6 -9 15 -19 21 -16 8
-24 4 -49 -31 -17 -22 -45 -48 -64 -57 -35 -18 -41 -23 -122 -96 -55 -51 -85
-59 -219 -59 -124 1 -156 17 -195 103 -17 36 -36 83 -42 105 -7 22 -22 51 -34
65 -12 14 -30 41 -40 60 -10 19 -29 55 -42 80 -13 24 -24 61 -24 81 0 25 -8
47 -25 67 -20 24 -26 44 -30 108 -7 105 -24 117 -88 59 -40 -36 -41 -53 -3
-85 9 -7 16 -28 16 -49 0 -20 9 -47 20 -61 11 -14 20 -40 20 -57 0 -22 13 -50
36 -83 19 -27 40 -66 45 -86 6 -20 25 -57 43 -83 40 -57 69 -140 61 -172 -8
-31 29 -89 68 -107 17 -8 27 -21 27 -36 0 -12 5 -27 10 -32 11 -11 -8 -64 -22
-64 -5 0 -8 -13 -8 -30 0 -33 15 -38 66 -20 20 7 34 23 47 53 21 52 21 66 2
73 -8 4 -15 10 -15 15 0 12 37 11 61 -1 12 -7 44 -7 93 -1 96 12 123 6 131
-27 4 -15 24 -45 45 -69 22 -23 45 -57 53 -75 14 -34 26 -49 111 -140 26 -29
66 -88 87 -130 21 -42 43 -79 48 -82 5 -3 19 -35 31 -70 13 -35 37 -79 54 -98
33 -36 46 -60 66 -123 14 -42 38 -81 82 -129 15 -17 32 -41 40 -55 13 -28 61
-93 91 -126 40 -43 97 -139 97 -161 0 -27 14 -55 48 -97 12 -16 22 -36 22 -46
0 -9 9 -26 19 -38 10 -11 27 -35 36 -54 10 -19 21 -36 25 -39 9 -6 70 -121 70
-132 0 -9 61 -109 77 -125 30 -32 21 -113 -13 -113 -11 0 -99 -63 -119 -85 -5
-6 -63 -47 -128 -90 -112 -75 -118 -78 -132 -59 -15 20 -19 48 -16 103 3 42
-17 117 -35 132 -11 9 -18 6 -33 -12 -22 -26 -22 -86 -2 -184 19 -89 18 -135
-2 -135 -8 0 -22 -9 -32 -20 -10 -11 -23 -20 -30 -20 -6 0 -22 -11 -35 -25
-23 -24 -24 -24 -184 -22 -127 3 -168 7 -193 20 -17 9 -38 14 -46 11 -15 -5
-67 36 -67 53 0 28 -83 20 -92 -8 -3 -10 -25 -5 -84 18 -52 20 -106 33 -159
37 -337 28 -447 48 -560 101 -27 13 -94 31 -148 40 -53 9 -116 22 -138 30 -23
8 -54 15 -70 15 -29 0 -29 0 -29 -65 0 -64 0 -65 28 -65 15 0 60 -9 100 -20
39 -11 83 -20 97 -20 13 0 42 -6 62 -14 21 -8 95 -32 164 -54 115 -37 142 -41
300 -51 218 -14 264 -23 342 -60 34 -17 125 -51 202 -77 77 -25 144 -50 149
-55 6 -5 18 -9 28 -9 11 0 32 -7 48 -15 41 -21 39 -55 -7 -158 -51 -110 -59
-121 -123 -148 -30 -13 -62 -31 -72 -41 -10 -10 -30 -18 -45 -18 -14 0 -35 -8
-45 -17 -11 -9 -39 -18 -67 -20 -48 -2 -151 -49 -216 -97 -53 -40 -121 -76
-142 -76 -11 0 -26 -7 -33 -15 -6 -8 -19 -14 -28 -13 -46 3 -73 -3 -78 -19 -3
-10 -9 -27 -13 -38 -26 -68 -29 -88 -20 -156 8 -64 7 -74 -12 -100 -21 -29
-105 -91 -168 -123 -27 -15 -48 -16 -120 -11 -51 5 -101 15 -123 26 -21 11
-44 19 -51 19 -8 0 -31 16 -51 35 -21 19 -46 35 -56 35 -10 0 -22 5 -25 10
-14 23 -25 7 -25 -40 0 -44 2 -50 21 -50 11 0 28 -9 37 -20 10 -11 72 -37 142
-61 112 -37 132 -40 189 -35 79 7 151 41 226 107 30 26 68 50 84 54 17 4 33
11 36 16 8 13 72 11 98 -2 12 -6 33 -22 47 -34 14 -13 36 -26 50 -30 14 -4 32
-13 40 -20 18 -15 137 -50 199 -59 24 -4 53 -12 65 -19 48 -26 94 -38 155 -37
61 0 93 11 78 27 -4 3 -37 10 -74 15 -37 4 -71 12 -77 18 -5 5 -19 10 -29 10
-11 0 -25 8 -32 17 -8 10 -34 19 -73 23 -71 9 -171 38 -193 57 -8 7 -20 13
-25 13 -5 0 -26 16 -47 35 -21 19 -60 44 -87 56 -28 12 -50 27 -50 33 0 20 28
144 35 155 3 6 11 11 16 11 6 0 25 11 42 24 18 13 59 38 92 56 33 18 67 38 75
45 23 20 89 43 145 50 51 7 168 55 179 74 4 6 17 11 30 11 13 0 33 9 46 20 13
11 31 20 40 20 35 0 114 110 153 215 41 113 61 155 73 155 6 0 24 12 40 26 43
39 87 64 109 64 11 0 38 -11 60 -25 22 -13 69 -38 105 -55 36 -17 73 -35 82
-41 10 -5 23 -9 30 -9 6 0 30 -9 52 -19 23 -10 84 -38 136 -60 52 -23 101 -47
110 -54 8 -7 29 -19 45 -26 17 -7 44 -19 60 -26 17 -8 45 -17 62 -20 19 -4 55
-27 85 -56 106 -98 200 -124 307 -85 71 26 104 21 135 -18 14 -19 26 -41 26
-49 0 -9 17 -29 38 -45 34 -27 39 -29 60 -15 31 21 28 38 -14 70 -37 29 -69
79 -56 87 9 5 90 -16 118 -31 12 -7 39 -17 60 -22 22 -6 64 -17 94 -26 30 -8
79 -15 110 -15 30 0 101 -7 158 -15 57 -8 128 -13 159 -10 51 4 57 3 90 -28
19 -17 43 -46 53 -62 10 -17 37 -50 59 -73 68 -71 53 -119 -84 -269 -27 -31
-57 -65 -65 -76 -19 -26 -98 -107 -165 -168 -28 -25 -70 -77 -94 -115 -89
-144 -105 -167 -158 -222 -30 -31 -73 -83 -95 -114 -41 -58 -56 -69 -62 -45
-36 123 -75 364 -82 502 -2 44 -9 90 -15 102 -9 17 -8 36 6 85 9 35 22 74 28
88 5 14 12 34 14 45 2 11 8 24 13 29 6 6 10 26 10 45 0 19 11 54 26 78 28 48
25 63 -12 63 -21 0 -29 -9 -48 -52 -13 -29 -26 -78 -30 -109 -8 -60 -24 -121
-50 -181 -9 -21 -16 -51 -16 -67 0 -42 -21 -44 -85 -5 -32 19 -61 34 -66 34
-4 0 -15 15 -24 33 -35 73 -120 139 -140 107 -3 -6 -22 1 -45 15 -22 14 -44
25 -50 25 -6 0 -15 11 -21 24 -7 15 -22 26 -41 28 -36 6 -47 -10 -22 -32 10
-9 24 -25 30 -35 6 -11 31 -30 57 -42 25 -12 48 -31 52 -42 3 -10 18 -24 33
-29 15 -5 63 -34 107 -63 108 -72 112 -75 171 -104 l51 -25 7 -68 c18 -174 25
-226 50 -347 14 -71 33 -147 41 -168 15 -37 15 -38 -26 -110 -59 -106 -53
-102 -156 -90 -48 6 -105 8 -126 6 -20 -3 -50 0 -65 6 -25 11 -72 69 -72 90 0
5 -9 13 -21 16 -26 9 -42 50 -29 75 13 25 -14 49 -38 33 -13 -8 -17 -25 -17
-69 0 -65 8 -84 36 -84 10 0 21 -10 25 -22 5 -18 -1 -29 -30 -54 -21 -18 -52
-40 -69 -48 -18 -9 -57 -30 -87 -46 -30 -17 -60 -30 -67 -30 -7 0 -26 -18 -44
-39 -17 -22 -45 -45 -62 -51 -27 -9 -36 -7 -70 17 -22 15 -44 40 -49 55 -13
36 -45 38 -54 3 -4 -16 0 -30 10 -41 10 -9 15 -19 12 -22 -11 -10 -101 31
-131 59 -17 16 -35 29 -40 29 -14 0 -85 67 -85 79 0 6 -14 26 -30 44 -17 19
-33 49 -36 66 -7 32 -29 51 -58 51 -20 0 -21 -37 -1 -56 8 -9 15 -26 15 -38 0
-13 14 -40 30 -61 16 -21 30 -42 30 -46 0 -5 5 -9 11 -9 13 0 57 -33 107 -81
44 -42 80 -60 186 -91 89 -26 109 -47 120 -123 8 -48 28 -72 105 -125 28 -19
51 -38 51 -41 0 -4 -14 -9 -32 -13 -17 -3 -39 -12 -47 -20 -17 -14 -96 -39
-240 -76 -65 -17 -89 -19 -108 -11 -24 11 -423 19 -439 8 -5 -3 -40 -8 -78
-11 -38 -3 -74 -10 -80 -16 -5 -5 -16 -10 -23 -10 -8 0 -68 -25 -135 -55 -66
-30 -126 -55 -131 -55 -6 0 -38 -13 -71 -29 -79 -38 -187 -56 -252 -42 -173
35 -378 90 -455 123 l-56 23 0 85 c0 47 -5 103 -12 125 -7 22 -16 58 -19 80
-7 38 -9 40 -42 40 -29 0 -36 -4 -38 -22 -2 -13 1 -23 6 -23 9 0 18 -32 26
-92 2 -14 8 -32 12 -40 4 -7 9 -32 9 -55 2 -33 -2 -44 -17 -48 -23 -8 -34 -50
-19 -81 19 -43 15 -47 -46 -39 -31 4 -68 12 -82 17 -14 6 -68 12 -119 14 l-92
2 0 -27 0 -27 82 -3 c45 -1 87 -6 93 -11 12 -10 138 -26 168 -22 11 1 30 11
44 22 30 24 71 26 99 5 10 -8 25 -15 33 -15 7 0 35 -11 63 -25 27 -14 60 -25
74 -25 13 0 47 -9 76 -20 29 -11 63 -20 76 -20 59 0 82 -133 41 -240 -17 -46
-20 -74 -18 -170 1 -63 -1 -123 -6 -132 -4 -10 1 -37 11 -63 13 -36 15 -51 6
-70 -7 -14 -18 -25 -27 -25 -8 0 -24 -5 -34 -12 -24 -15 -49 -5 -60 24 -13 33
-56 70 -77 66 -10 -2 -23 -15 -28 -30 -14 -40 20 -98 75 -126 24 -12 45 -26
47 -32 4 -12 -41 -35 -113 -55 -33 -10 -64 -20 -70 -24 -30 -18 -92 -32 -190
-42 -60 -6 -118 -15 -127 -20 -9 -5 -30 -9 -47 -9 -29 0 -142 23 -176 36 -14
6 -16 1 -13 -27 l3 -33 80 -13 c44 -8 94 -12 110 -10 17 3 86 12 154 21 69 9
156 27 195 40 39 13 88 26 109 29 56 9 144 64 180 113 18 23 54 59 80 80 45
33 51 35 75 24 56 -26 239 -82 297 -90 68 -11 223 3 270 25 17 7 46 16 65 20
19 4 56 20 83 36 26 16 55 29 65 29 35 0 61 41 43 68 -7 11 -17 11 -57 -3 -27
-9 -56 -23 -65 -31 -9 -8 -34 -18 -55 -21 -22 -3 -54 -18 -73 -32 -33 -25 -38
-26 -167 -23 -107 2 -142 7 -176 22 -24 11 -52 20 -64 20 -34 0 -115 31 -121
46 -3 8 -14 14 -24 14 -10 0 -19 4 -19 10 0 5 -13 16 -29 25 -26 13 -31 23
-41 86 -15 85 -10 161 13 209 21 45 36 114 37 167 0 45 -4 42 120 67 14 2 57
16 95 30 39 14 82 26 96 26 15 0 29 6 32 14 5 13 15 17 192 80 128 45 300 65
401 46 51 -10 74 -10 109 0 33 9 52 10 76 1 79 -28 193 -10 429 65 133 42 304
68 385 58 98 -11 165 -11 165 1 0 15 -51 35 -86 35 -15 0 -24 6 -24 15 0 8 4
15 8 15 4 0 40 29 79 65 89 81 227 263 289 381 25 49 47 90 49 92 3 4 64 -29
70 -38 7 -11 289 -150 304 -150 6 0 48 -17 94 -39 45 -21 118 -49 162 -61 67
-18 153 -52 225 -89 8 -4 62 -22 120 -40 58 -19 130 -42 160 -53 30 -11 87
-28 125 -39 98 -28 184 -109 115 -109 -10 0 -20 6 -23 13 -6 17 -41 -4 -45
-27 -5 -23 27 -59 42 -47 17 13 62 22 79 15 8 -3 34 -49 58 -102 24 -53 56
-118 71 -143 15 -25 28 -49 28 -52 0 -4 31 -53 69 -109 64 -97 212 -252 281
-296 56 -35 178 -177 253 -295 21 -32 31 -45 108 -136 31 -36 58 -71 60 -76 2
-6 24 -40 49 -77 l45 -68 97 0 c54 0 98 3 98 6 0 3 -20 27 -44 53 -24 25 -81
96 -127 156 -45 61 -90 116 -100 123 -10 7 -31 34 -46 60 -15 26 -44 68 -65
93 -21 25 -38 49 -38 52 0 4 -29 43 -65 86 -66 80 -112 121 -177 156 -49 27
-142 113 -196 183 -43 56 -61 87 -150 256 -23 44 -57 108 -74 141 -40 74 -53
108 -82 210 -14 46 -47 122 -80 179 -31 54 -56 104 -56 111 0 6 -9 22 -19 34
-10 12 -29 47 -41 79 -12 31 -28 71 -36 87 -34 72 -66 256 -47 268 19 12 258
-74 298 -106 6 -5 24 -17 42 -27 40 -24 53 -68 47 -163 -6 -81 -21 -144 -41
-168 -18 -22 -16 -45 7 -67 11 -10 26 -37 34 -60 9 -24 32 -63 51 -87 25 -30
37 -55 38 -81 3 -42 17 -53 37 -29 11 13 11 21 2 36 -7 10 -12 29 -12 42 0 13
-9 32 -20 42 -12 10 -30 34 -42 53 -17 28 -19 38 -9 58 9 20 8 28 -2 39 -10
10 -11 27 -5 71 5 33 13 99 18 148 5 48 11 91 14 94 3 3 23 -7 43 -21 21 -14
52 -29 68 -32 17 -4 49 -13 72 -21 33 -11 67 -12 150 -5 60 5 121 14 137 20
44 17 248 24 299 10 66 -18 452 -13 524 7 32 9 70 17 84 19 81 12 443 198 628
322 19 13 45 23 58 23 25 0 74 -41 85 -71 4 -9 24 -30 45 -45 21 -16 63 -51
94 -79 74 -67 314 -185 375 -185 8 0 31 -12 50 -26 33 -26 34 -26 34 -5 0 27
38 37 93 23 23 -6 105 -14 182 -18 130 -6 190 -7 353 -4 70 1 99 -5 122 -25
24 -21 106 -46 155 -47 53 -1 67 -14 38 -38 -23 -19 -53 -72 -53 -94 0 -9 -23
-27 -50 -41 -34 -17 -50 -32 -50 -45 0 -43 -94 -116 -138 -107 -34 7 -116 -32
-121 -58 -9 -48 -103 -77 -114 -35 -8 30 -57 26 -101 -9 -35 -28 -41 -29 -109
-24 -57 4 -92 0 -171 -21 -54 -14 -111 -26 -126 -26 -15 0 -61 17 -101 38 -59
30 -80 46 -104 84 -32 50 -48 58 -63 32 -8 -15 -11 -15 -35 1 -34 22 -67 79
-67 116 0 23 -4 29 -21 29 -20 0 -21 -4 -15 -47 3 -25 13 -54 21 -63 24 -26
19 -42 -8 -29 -13 6 -28 25 -33 42 -5 18 -17 33 -26 35 -15 3 -18 -5 -18 -51
0 -35 4 -54 13 -55 93 -11 258 -77 276 -111 11 -20 103 -57 167 -67 23 -3 46
-9 51 -13 15 -9 53 -92 47 -102 -10 -17 -39 -9 -68 19 -72 67 -126 83 -126 37
0 -19 7 -26 28 -31 26 -6 72 -41 72 -54 0 -4 -12 -12 -26 -18 -14 -7 -22 -17
-19 -22 15 -25 118 -1 174 41 28 21 30 21 60 3 36 -21 52 -12 26 16 -18 19
-17 20 26 39 24 11 59 35 78 54 24 26 45 37 79 42 25 4 63 14 85 22 46 19 58
11 30 -20 -48 -52 -56 -97 -18 -97 22 0 25 -4 25 -39 0 -28 -8 -49 -26 -70
-21 -26 -24 -34 -14 -46 17 -21 30 -19 30 4 0 28 19 36 35 15 21 -30 29 -9 15
41 -14 50 -9 61 30 67 14 2 26 11 28 21 3 14 -4 17 -37 17 -40 0 -41 1 -41 35
0 28 5 37 29 50 16 8 51 37 77 65 26 28 55 50 63 49 9 -1 25 2 36 6 11 5 42
17 69 27 32 12 64 35 89 64 22 25 71 70 108 100 37 29 70 63 74 74 5 16 15 19
53 19 79 -2 125 27 157 96 7 17 25 41 39 54 21 20 32 23 72 18 40 -4 54 -13
100 -59 l54 -53 -6 -65 c-7 -61 -10 -68 -58 -116 -44 -44 -58 -52 -100 -58
-27 -3 -51 -8 -54 -11 -12 -12 10 -35 34 -35 25 0 26 -2 20 -32 -3 -18 -15
-45 -26 -60 -11 -15 -20 -34 -20 -43 0 -9 -7 -29 -15 -46 -11 -21 -17 -68 -19
-162 -4 -133 -11 -182 -29 -205 -12 -15 -4 -146 13 -187 11 -28 12 -29 25 -12
11 15 21 18 52 13 26 -5 56 0 97 14 48 16 71 32 122 88 74 78 96 118 102 187
4 38 13 59 39 89 18 22 38 57 43 78 6 20 22 50 35 66 13 16 29 41 34 56 12 31
33 33 70 7 28 -20 130 -56 189 -67 20 -4 40 -8 44 -11 4 -2 -2 -28 -14 -58
-20 -54 -19 -90 4 -83 6 2 16 18 22 34 6 17 20 43 32 59 l21 28 89 -60 c49
-33 115 -77 148 -99 32 -21 77 -48 100 -59 22 -11 104 -51 181 -90 134 -67
140 -71 137 -98 -4 -41 -81 -207 -114 -245 -15 -18 -35 -48 -43 -67 -12 -31
-18 -35 -49 -35 -39 0 -41 -5 -26 -46 6 -15 8 -35 5 -43 -9 -21 -46 74 -43
109 1 14 -4 41 -10 60 -6 19 -14 70 -17 113 -3 44 -10 87 -15 97 -6 10 -10 32
-10 48 0 16 -7 35 -15 42 -23 19 -31 -15 -15 -59 8 -20 15 -74 16 -121 2 -51
11 -111 23 -150 12 -36 21 -75 21 -87 0 -12 4 -24 9 -27 5 -4 12 -24 16 -46 6
-33 2 -46 -24 -83 -18 -27 -38 -44 -48 -43 -14 1 -17 -5 -15 -31 4 -41 -15
-44 -50 -8 -13 13 -36 28 -50 34 -14 5 -33 25 -42 45 -9 20 -23 36 -30 36 -20
0 -28 -31 -13 -49 7 -9 19 -28 26 -42 7 -14 28 -33 46 -43 19 -10 43 -29 55
-41 l20 -22 -30 -39 c-16 -21 -38 -48 -49 -59 -10 -11 -24 -37 -31 -58 -8 -25
-26 -48 -52 -68 l-41 -29 97 0 97 0 14 34 c8 19 25 50 38 69 91 135 121 147
212 92 33 -19 63 -35 67 -35 5 0 26 -11 48 -25 22 -14 48 -25 57 -25 10 0 53
-17 96 -39 42 -21 97 -42 122 -45 24 -4 47 -11 50 -17 4 -5 77 -9 167 -9 l161
0 -7 107 c-4 60 -8 117 -9 128 -2 16 3 20 27 18 16 -1 38 3 48 8 20 11 20 18
2 92 -3 16 -2 38 4 50 5 12 15 41 21 65 7 25 17 42 24 39 6 -2 38 -54 70 -116
58 -110 60 -115 67 -215 4 -56 13 -119 21 -139 13 -36 14 -37 65 -37 l52 0
-18 58 c-10 31 -18 86 -19 122 -1 36 -4 74 -7 85 -13 44 -89 212 -106 234 -20
26 -24 51 -8 51 6 0 29 -8 53 -19 23 -10 76 -29 117 -41 41 -13 93 -29 114
-37 22 -8 136 -25 255 -39 180 -21 255 -24 451 -22 227 2 237 1 283 -21 26
-12 55 -33 64 -45 32 -39 43 -40 43 -4 0 26 -7 38 -30 53 -38 25 -38 31 0 38
l30 6 0 181 0 180 -25 0 c-13 0 -73 -7 -132 -16 -212 -32 -460 -20 -588 29
-66 25 -266 234 -369 385 -25 37 -84 103 -132 147 -47 43 -92 95 -100 113 -11
27 -18 33 -34 29 -15 -4 -28 4 -47 30 -36 47 -71 60 -95 36 -15 -16 -16 -22
-6 -45 7 -14 25 -34 40 -44 44 -30 34 -41 -42 -48 -39 -3 -78 -10 -88 -15 -9
-4 -46 -18 -82 -30 -36 -12 -99 -34 -141 -50 -42 -15 -83 -25 -91 -22 -9 3
-45 33 -81 66 -35 34 -85 72 -111 85 -25 14 -46 28 -46 32 0 3 30 9 68 11 37
3 90 10 117 16 28 6 109 14 180 17 138 5 188 15 245 44 19 10 62 26 95 35 33
9 67 21 75 26 8 5 31 18 51 28 20 11 43 31 53 45 9 14 24 26 33 26 20 0 123
50 123 60 0 4 24 23 53 42 60 40 65 40 132 -22 38 -34 162 -165 196 -206 9
-10 38 -40 65 -65 27 -26 67 -67 89 -91 22 -24 83 -91 136 -148 53 -58 125
-136 160 -175 60 -66 214 -214 272 -262 l27 -23 0 142 0 142 -87 86 c-49 47
-158 159 -243 250 -85 90 -164 171 -175 179 -10 9 -49 47 -85 85 -36 38 -102
108 -147 155 -131 137 -129 133 -110 194 9 29 19 69 23 91 7 40 45 117 74 151
10 11 23 38 30 60 22 68 67 148 103 183 l34 33 158 -16 c144 -15 161 -19 197
-45 21 -16 56 -31 77 -35 57 -9 110 -65 62 -65 -25 0 -32 -21 -15 -45 25 -34
17 -68 -31 -122 -38 -42 -52 -51 -90 -56 -24 -4 -54 -12 -65 -19 -16 -10 -24
-10 -39 -1 -20 12 -121 7 -121 -6 0 -15 25 -31 47 -31 13 0 35 -7 48 -16 13
-9 29 -13 34 -9 6 3 39 11 73 16 37 6 75 20 93 33 16 12 37 25 46 28 9 4 28
30 43 60 15 29 36 60 47 70 17 14 19 30 19 141 l0 125 -32 5 c-83 15 -100 21
-122 48 -13 15 -26 25 -30 22 -3 -3 -59 2 -123 11 -213 32 -214 32 -272 84
-71 64 -129 79 -341 87 -188 8 -211 16 -230 85 -7 27 -25 52 -58 79 -26 23
-52 41 -58 41 -6 0 -23 11 -38 25 -15 14 -36 25 -47 25 -30 0 -23 23 29 90 26
34 52 69 57 78 6 9 16 23 23 31 35 37 66 99 68 137 1 22 7 67 13 99 6 32 11
91 11 130 0 95 26 119 83 75 14 -11 33 -20 44 -20 17 0 96 -27 158 -55 17 -7
71 -26 120 -40 50 -15 122 -39 160 -55 39 -15 95 -33 125 -40 30 -7 63 -17 73
-22 30 -16 115 -37 227 -57 114 -21 141 -29 152 -45 4 -6 8 116 8 270 l0 282
-37 5 c-21 3 -72 10 -113 16 -41 6 -100 17 -130 26 -30 8 -64 15 -77 15 -12 0
-25 5 -28 10 -3 6 -16 10 -29 10 -15 0 -38 20 -74 65 -29 36 -52 70 -52 75 0
5 -12 17 -27 27 -16 9 -29 18 -31 19 -2 1 -5 20 -7 43 -4 36 -18 70 -51 120
-10 15 -123 135 -268 283 -104 105 -116 128 -116 212 0 47 7 92 21 131 20 56
20 67 9 170 -18 168 -22 180 -76 230 -63 59 -84 66 -84 28 0 -20 10 -36 33
-54 44 -36 62 -79 77 -176 20 -131 -5 -176 -48 -87 -20 41 -25 45 -55 42 -29
-3 -32 -6 -30 -33 1 -16 9 -35 18 -41 8 -6 15 -19 15 -28 0 -9 6 -25 13 -37
10 -17 9 -22 -5 -33 -29 -22 -23 -60 12 -73 35 -13 39 -28 10 -36 -15 -4 -20
-14 -20 -41 0 -29 7 -43 40 -72 22 -20 40 -40 40 -45 0 -19 77 -119 103 -134
15 -9 32 -27 37 -40 5 -13 21 -31 35 -42 36 -25 105 -92 105 -102 0 -4 18 -27
40 -51 41 -45 51 -70 25 -70 -8 0 -19 -9 -25 -20 -6 -11 -8 -20 -4 -20 3 0 1
-7 -6 -15 -17 -20 -128 -20 -154 0 -11 8 -30 15 -41 15 -23 0 -48 22 -59 54
-5 14 -13 17 -36 12 -38 -7 -38 2 -5 90 24 63 32 114 19 126 -13 13 -45 -6
-49 -31 -9 -42 -25 -94 -41 -126 -7 -16 -19 -50 -25 -74 l-10 -43 -112 6
c-182 9 -380 25 -409 32 -16 3 -28 10 -28 15 0 5 -10 9 -22 9 -13 0 -36 9 -53
20 -16 11 -39 25 -50 32 -11 7 -31 21 -44 31 -13 9 -32 17 -41 17 -10 0 -23 6
-29 14 -6 7 -32 19 -56 26 -55 15 -57 32 -20 133 43 119 45 122 93 125 48 4
54 25 9 30 -22 3 -27 8 -27 31 0 16 6 34 14 40 43 36 44 186 1 225 -20 19 -22
27 -15 65 4 23 13 48 19 54 15 15 14 47 -3 47 -26 0 -66 -73 -68 -124 -1 -38
-5 -50 -20 -54 -22 -5 -22 -6 -4 -40 19 -38 20 -132 1 -132 -21 0 -64 91 -66
137 0 21 -1 162 -2 313 -2 259 -3 275 -21 278 -10 2 -22 0 -27 -5 -6 -6 -10
-90 -11 -189 -1 -98 -4 -215 -7 -259 -9 -119 28 -266 82 -323 39 -40 38 -83
-1 -124 -34 -36 -53 -35 -77 5 -23 40 -36 49 -51 36 -15 -13 -7 -43 17 -65 26
-23 24 -46 -6 -74 -19 -18 -22 -27 -14 -41 8 -15 6 -19 -8 -20 -33 -2 -48 2
-74 21 -15 11 -39 22 -54 26 -15 4 -49 17 -76 30 -58 28 -75 30 -83 8 -7 -17
9 -44 26 -44 17 0 162 -74 183 -93 20 -18 29 -21 97 -32 39 -6 68 -35 68 -67
0 -10 -1 -18 -2 -18 -15 1 -102 32 -120 43 -31 20 -171 31 -199 17 -21 -12
-77 3 -184 51 -23 10 -53 21 -68 24 -31 8 -114 88 -178 172 -24 32 -50 64 -56
71 -19 20 -16 32 12 54 14 11 44 48 67 81 23 34 47 68 54 74 26 27 73 121 84
167 13 61 27 86 45 86 8 0 20 9 27 20 16 24 28 25 66 3 25 -14 32 -15 46 -4
34 28 5 160 -47 217 -14 14 -29 36 -35 48 -19 42 -62 212 -62 245 0 10 -11 31
-25 47 -14 16 -39 65 -55 109 -17 44 -35 89 -41 99 -6 11 -12 49 -14 86 -1 37
-8 76 -14 89 -18 33 3 168 30 198 14 14 20 30 16 44 -3 12 -1 30 6 40 8 13 8
24 -2 42 -7 14 -10 34 -7 44 4 13 -1 29 -14 44 l-20 24 -21 -25 c-15 -16 -23
-21 -26 -12 -6 17 -62 15 -69 -3 -3 -8 3 -31 15 -50 19 -33 21 -48 17 -166 -5
-157 -12 -172 -83 -162 -43 6 -45 5 -41 -18 1 -13 10 -25 18 -25 8 -1 19 -2
23 -3 4 0 -4 -12 -18 -25 -22 -21 -25 -28 -15 -45 13 -26 15 -26 40 -1 21 21
65 27 75 10 4 -6 8 -33 9 -60 1 -27 8 -55 14 -63 10 -12 39 -86 59 -152 4 -11
17 -37 30 -57 12 -21 23 -47 23 -58 0 -11 6 -31 14 -43 7 -12 16 -49 19 -82 7
-65 33 -129 66 -159 19 -17 19 -19 3 -36 -9 -10 -27 -21 -40 -25 -29 -9 -62
-44 -62 -67 0 -9 -9 -32 -20 -50 -11 -18 -20 -43 -20 -56 0 -28 -48 -134 -65
-144 -7 -4 -30 -35 -51 -68 -21 -33 -45 -60 -54 -60 -8 0 -25 -3 -37 -6 -18
-5 -35 7 -87 62 -36 38 -66 72 -66 76 0 4 9 10 20 13 23 7 25 18 7 37 -16 15
-31 66 -28 88 2 8 9 22 16 30 7 8 17 27 20 42 6 25 5 28 -19 28 -14 0 -26 -4
-26 -9 0 -6 -11 -22 -25 -37 -14 -15 -25 -31 -25 -35 0 -5 -4 -9 -9 -9 -11 0
-26 53 -26 95 0 22 -5 31 -20 33 -26 5 -45 30 -45 59 0 19 21 75 51 135 5 10
9 33 9 52 0 19 9 45 21 60 15 20 19 34 15 54 -4 15 -10 43 -14 62 -5 26 -13
35 -27 35 -18 0 -20 -6 -17 -52 2 -36 -3 -61 -14 -78 -9 -14 -19 -43 -21 -63
-2 -20 -10 -43 -17 -51 -12 -11 -15 -8 -24 20 -35 108 -62 512 -44 654 10 77
4 157 -12 152 -7 -2 -11 -31 -12 -73 -1 -38 -4 -107 -8 -154 -8 -81 7 -422 20
-466 4 -16 0 -23 -15 -27 -15 -3 -21 -13 -21 -31 0 -21 -5 -26 -24 -26 -22 0
-26 -6 -32 -47 -6 -41 -8 -44 -20 -29 -8 12 -10 26 -4 41 18 46 -49 79 -102
51 -16 -8 -28 -11 -28 -5 0 5 -6 9 -14 9 -8 0 -28 16 -45 35 -28 32 -31 42
-31 100 0 79 22 129 101 236 85 113 133 222 175 395 19 82 39 163 45 180 14
46 11 149 -6 215 -16 59 -42 222 -51 314 -3 29 -20 79 -40 117 -19 38 -41 94
-50 125 -9 32 -20 74 -26 93 -16 58 -27 111 -43 200 -8 47 -19 92 -24 101 -5
9 -12 38 -16 65 -6 37 -16 59 -45 89 -49 53 -71 88 -104 165 -15 36 -36 81
-46 100 -10 19 -26 60 -35 91 -11 40 -22 58 -35 62 -11 3 -20 13 -20 22 0 9
-11 31 -25 49 -32 42 -31 54 9 151 22 55 38 81 51 84 10 2 42 21 71 42 29 21
72 48 96 60 24 12 57 36 73 54 113 119 249 209 312 207 26 -1 41 6 63 28 15
15 46 38 69 49 29 15 53 41 87 94 48 73 70 101 157 202 26 30 47 61 47 68 0 8
21 34 48 58 26 25 65 71 87 102 22 31 43 57 47 57 4 0 8 5 8 10 0 6 -30 10
-70 10 -63 0 -71 -2 -87 -26 -10 -14 -26 -34 -35 -45 -10 -10 -18 -21 -18 -24
0 -3 -16 -19 -35 -36 -19 -17 -35 -37 -35 -43 0 -7 -12 -19 -26 -27 -24 -12
-67 -69 -117 -153 -10 -17 -27 -38 -37 -46 -10 -8 -30 -34 -44 -57 -14 -24
-30 -43 -35 -43 -5 0 -22 -11 -38 -24 -16 -13 -48 -26 -73 -29 -41 -5 -49 -3
-90 32 -25 21 -62 44 -83 50 -21 7 -41 19 -44 26 -2 8 -18 17 -35 20 -16 4
-32 13 -35 22 -5 12 31 101 57 143 6 8 14 24 19 35 15 35 44 53 96 62 41 7 51
12 53 31 3 20 -1 22 -37 22 -23 0 -41 2 -41 5 0 3 9 25 20 47 11 23 20 45 20
50 0 4 -18 8 -40 8 -34 0 -42 -4 -55 -30 -8 -16 -27 -33 -40 -36 -14 -3 -25
-12 -25 -19 0 -6 -9 -20 -20 -30 -11 -10 -25 -37 -31 -59 -25 -91 -42 -122
-61 -110 -4 3 -8 14 -8 24 0 22 -54 54 -76 46 -19 -7 -18 -50 1 -66 8 -7 15
-19 15 -26 0 -19 -26 -18 -34 2 -4 11 -17 14 -43 12 -33 -3 -38 -7 -41 -29 -4
-38 19 -55 89 -68 34 -6 64 -13 67 -16 9 -9 -38 -117 -68 -155 -16 -22 -35
-69 -49 -123 -27 -110 -80 -278 -92 -293 -12 -15 -65 -25 -92 -18 -23 5 -46
52 -82 164 -10 30 -33 95 -52 145 -19 49 -41 118 -48 152 -21 102 -46 165 -84
217 -47 65 -80 122 -133 229 l-43 87 -57 0 c-32 0 -58 -3 -58 -7 0 -12 35 -61
58 -84 12 -11 22 -31 22 -44 0 -13 10 -36 23 -52 13 -15 27 -35 31 -43 10 -22
27 -50 62 -100 51 -73 74 -127 89 -203 8 -40 26 -103 40 -142 25 -66 53 -146
96 -274 l18 -54 -57 7 c-31 4 -63 13 -72 21 -9 8 -23 15 -31 15 -8 0 -29 20
-46 44 -32 46 -128 106 -169 106 -12 0 -34 7 -50 15 -18 9 -42 12 -70 8 -34
-4 -46 -1 -63 16 -11 11 -27 21 -33 21 -22 0 -78 77 -78 105 0 32 -46 95 -69
95 -9 0 -22 -9 -28 -19 -10 -16 -9 -23 7 -41 13 -15 17 -31 13 -51 -4 -23 2
-37 37 -76 23 -26 48 -59 54 -73 6 -14 17 -32 23 -40 33 -38 83 -111 83 -120
0 -40 -165 -215 -213 -226 -17 -3 -43 -19 -58 -35 -20 -21 -36 -29 -62 -29
-41 0 -67 -21 -67 -54 0 -40 53 -65 66 -31 4 8 17 15 30 15 13 0 39 14 57 30
19 17 44 30 56 30 24 0 118 83 202 178 34 39 69 55 69 32 0 -19 25 -10 35 13
10 23 49 33 89 23 11 -3 42 -26 68 -51 27 -25 55 -45 63 -45 23 0 87 -35 109
-59 11 -12 25 -21 32 -21 7 0 26 -11 42 -25 17 -14 35 -25 40 -25 21 0 82 -42
82 -57 0 -8 9 -27 20 -43 11 -15 29 -47 40 -71 11 -24 35 -71 54 -104 20 -33
36 -66 36 -74 0 -25 61 -145 108 -214 67 -97 73 -109 66 -139 -3 -15 2 -40 11
-58 9 -17 20 -55 25 -83 6 -29 19 -83 30 -122 11 -38 29 -104 39 -145 11 -41
31 -103 45 -138 14 -35 28 -95 31 -135 3 -40 12 -90 20 -112 25 -76 47 -197
42 -239 -3 -22 -12 -72 -21 -111 -9 -38 -21 -97 -27 -130 -16 -95 -67 -224
-105 -265 -34 -36 -94 -119 -94 -129 0 -6 -5 -11 -10 -11 -15 0 -67 -116 -79
-178 -6 -29 -11 -98 -11 -153 l0 -100 49 -49 c27 -27 80 -69 117 -93 70 -45
115 -84 141 -124 9 -13 19 -20 24 -17 5 3 14 -7 20 -23 5 -15 15 -30 20 -34 6
-4 6 -15 -2 -32 -14 -30 -26 -32 -110 -14 -64 14 -84 27 -93 62 -8 31 -51 94
-76 112 -11 8 -20 20 -20 26 0 7 -18 29 -40 50 -22 20 -40 45 -40 55 0 10 -5
23 -12 30 -17 17 -67 15 -74 -3 -6 -14 54 -97 89 -123 9 -7 17 -22 17 -32 0
-11 13 -29 29 -41 36 -26 77 -97 64 -110 -11 -11 -63 5 -63 20 0 5 -14 19 -30
31 -26 18 -31 19 -36 6 -14 -37 53 -127 89 -118 4 1 7 -9 7 -23 0 -30 25 -34
40 -5 14 26 79 25 132 -1 21 -11 46 -19 56 -19 29 0 86 -60 105 -110 28 -74
17 -167 -19 -162 -24 3 -116 41 -281 113 -24 11 -45 19 -48 19 -5 0 -96 41
-210 94 -83 39 -225 110 -318 160 -49 25 -93 46 -99 46 -25 0 -78 52 -78 76 0
14 -7 38 -14 53 -9 16 -15 54 -14 92 0 35 -5 107 -11 159 -11 94 -31 339 -33
393 -1 17 11 42 31 65 17 20 59 78 92 127 34 50 98 127 143 173 45 46 83 88
85 95 2 6 15 23 28 37 61 64 74 100 81 237 6 112 5 132 -10 163 -10 19 -18 49
-18 66 0 35 -23 52 -46 33 -26 -22 -27 -76 -3 -151 21 -68 22 -73 6 -100 -9
-16 -17 -49 -17 -73 0 -49 -26 -105 -75 -158 -19 -20 -36 -45 -39 -55 -4 -11
-15 -23 -25 -28 -18 -9 -73 -69 -121 -134 -14 -18 -35 -46 -48 -61 -12 -15
-22 -30 -22 -34 0 -10 -80 -105 -89 -105 -7 0 -20 27 -55 114 -20 48 -20 85
-1 92 17 7 18 13 6 33 -8 13 -12 13 -26 1 -14 -12 -18 -12 -26 1 -5 8 -9 24
-9 36 0 13 -11 29 -24 38 -29 19 -59 10 -51 -16 5 -16 2 -17 -24 -9 -17 4 -40
18 -52 29 -13 12 -29 21 -37 21 -8 0 -32 16 -55 35 -22 19 -49 35 -59 35 -10
0 -18 4 -18 9 0 13 -27 21 -45 15 -21 -8 -19 -43 3 -51 29 -11 92 -64 92 -78
0 -8 18 -20 40 -26 21 -7 49 -23 61 -35 13 -13 28 -24 34 -24 6 0 22 -11 35
-25 13 -14 30 -25 37 -25 16 0 53 -80 53 -114 0 -12 7 -31 15 -42 8 -10 15
-26 15 -35 0 -9 8 -31 17 -50 23 -45 35 -124 38 -234 1 -49 5 -106 9 -125 10
-54 15 -330 6 -330 -37 0 -310 161 -370 218 -19 18 -57 45 -83 58 -51 27 -305
275 -449 442 -45 50 -86 92 -91 92 -32 0 -111 52 -172 114 -116 116 -203 238
-295 411 -77 146 -82 156 -96 175 -5 8 -19 35 -29 60 -11 25 -27 56 -36 70
-13 18 -19 61 -26 160 -13 209 -9 330 12 370 10 19 19 55 21 81 4 59 38 151
65 175 11 10 26 32 33 49 8 16 27 46 45 65 17 19 33 46 36 60 18 91 41 173 60
220 22 52 39 109 69 225 7 28 20 68 30 89 9 22 19 74 22 115 2 42 9 91 15 109
7 19 8 49 3 70 -4 20 -7 41 -5 45 1 5 3 56 5 115 2 59 8 131 12 160 5 40 3 56
-8 70 -18 20 -36 89 -53 197 -10 68 -19 107 -51 233 -2 7 -22 12 -54 12 -50 0
-50 0 -50 -33 0 -18 9 -56 20 -86 10 -29 24 -88 30 -130 6 -42 16 -98 21 -126
27 -145 31 -190 18 -227 -9 -29 -9 -46 1 -81 6 -25 9 -53 6 -63 -3 -11 -8 -71
-11 -134 -4 -71 -11 -126 -21 -144 -8 -16 -17 -48 -20 -70 -10 -74 -56 -260
-71 -290 -8 -16 -28 -74 -45 -130 -29 -97 -90 -211 -131 -245 -9 -7 -17 -18
-17 -23 0 -5 -12 -35 -26 -65 -14 -31 -30 -82 -36 -112 -5 -31 -19 -76 -31
-100 -19 -38 -22 -62 -22 -175 0 -72 4 -155 8 -184 10 -64 -2 -72 -71 -47 -52
18 -93 27 -257 50 -60 9 -149 27 -197 41 -48 13 -96 24 -107 24 -11 0 -23 5
-26 11 -4 6 -13 8 -21 5 -8 -3 -14 -4 -15 -3 0 1 -2 52 -5 113 l-4 112 41 77
c25 47 39 85 35 98 -2 11 2 36 10 56 12 30 13 59 5 114 0 4 -12 7 -25 7 -35 0
-50 -24 -42 -69 3 -23 2 -42 -4 -46 -5 -3 -10 -22 -10 -41 0 -38 -2 -39 -29
-23 -45 29 -86 -47 -63 -116 15 -44 10 -112 -10 -144 -10 -16 -9 -23 4 -38 25
-27 13 -73 -19 -73 -67 0 -267 49 -348 85 -17 8 -66 28 -110 45 -44 17 -95 38
-113 46 -17 8 -52 21 -76 28 -25 8 -57 23 -73 34 -44 31 -133 71 -172 77 -20
3 -58 12 -86 20 -27 7 -71 16 -97 20 -28 4 -59 16 -76 29 -15 13 -45 31 -67
40 -40 17 -95 62 -95 79 0 16 -31 39 -103 77 -144 76 -154 82 -184 125 -30 43
-72 165 -87 255 -8 41 -23 98 -34 125 -11 28 -24 78 -29 111 -13 93 6 131 129
256 32 32 64 58 72 58 9 0 22 12 30 28 19 36 64 78 99 91 15 6 32 22 37 36 5
14 18 28 27 32 10 3 28 15 40 26 17 15 20 24 12 44 -5 13 -9 34 -9 45 0 28 60
99 103 123 34 18 37 18 55 2 10 -9 22 -17 27 -17 5 0 16 -6 24 -13 22 -18 120
-10 128 10 7 19 -14 33 -50 33 -32 0 -98 26 -108 42 -4 7 -3 20 2 30 5 10 9
35 8 56 -2 23 4 48 14 62 18 25 21 69 11 133 -5 30 -11 37 -29 37 -31 0 -35
-18 -16 -58 15 -32 14 -35 -15 -90 -17 -31 -36 -58 -42 -60 -6 -2 -20 11 -31
28 -15 25 -19 48 -17 106 l1 74 -40 0 -41 0 1 -57 c0 -32 3 -62 7 -68 3 -5 9
-26 13 -45 4 -19 20 -52 37 -73 l29 -37 -80 -79 c-65 -64 -81 -86 -86 -117 -3
-22 -8 -48 -10 -60 -3 -11 -35 -45 -72 -75 -37 -29 -78 -66 -91 -81 -13 -16
-29 -28 -35 -28 -13 -1 -57 -35 -57 -44 0 -3 -33 -40 -73 -81 l-73 -74 -155 2
c-138 2 -158 5 -194 25 -22 12 -52 22 -67 22 -29 0 -80 25 -132 65 -25 19 -47
24 -111 28 -130 7 -175 33 -175 103 0 29 -55 130 -74 137 -8 3 -24 36 -36 72
-12 37 -55 133 -95 213 -40 81 -80 171 -91 200 -10 28 -22 52 -26 52 -4 0 -8
-1 -8 -3 0 -18 61 -170 95 -237 24 -47 57 -116 75 -153 l31 -68 -21 -17 c-21
-17 -21 -20 -7 -53 8 -19 26 -43 41 -52 36 -24 34 -47 -4 -47 -19 0 -33 -6
-37 -16 -10 -26 10 -68 40 -82 15 -7 27 -19 27 -26 0 -8 6 -19 14 -25 8 -7 17
-24 21 -39 7 -30 42 -72 59 -72 6 0 29 9 50 21 33 18 44 19 87 10 26 -6 54 -8
62 -5 7 2 31 -9 52 -26 21 -16 44 -30 52 -30 8 0 21 -7 29 -15 8 -8 31 -17 52
-20 20 -4 46 -10 57 -14 11 -5 32 -14 48 -20 15 -6 84 -14 153 -17 141 -8 149
-13 133 -85 -5 -21 -4 -50 2 -70 5 -19 14 -58 19 -88 5 -30 17 -62 25 -71 9
-10 22 -60 31 -116 9 -55 19 -119 24 -144 6 -28 5 -64 -1 -95 -10 -46 -13 -71
-17 -147 -2 -29 -18 -35 -50 -19 -9 5 -38 15 -64 23 -27 7 -48 16 -48 20 0 4
-15 8 -32 8 -39 0 -115 37 -171 82 -58 48 -65 56 -89 102 -23 46 -123 193
-147 217 -53 52 -187 203 -195 220 -5 10 -14 19 -20 19 -14 0 -156 145 -182
185 -10 17 -30 39 -43 50 -13 11 -73 69 -133 128 -103 101 -250 221 -287 235
-9 3 -34 20 -56 37 -22 17 -56 41 -75 53 -20 11 -46 32 -59 46 -14 14 -29 26
-35 26 -6 0 -22 14 -36 32 -14 17 -36 41 -49 52 -13 12 -32 29 -42 39 -10 9
-23 17 -27 17 -16 0 -170 129 -193 161 -12 17 -36 37 -54 45 -17 7 -37 20 -45
28 -10 13 -36 16 -128 16 l-115 0 44 -43z m7721 -487 c2 -6 19 -16 38 -23 20
-7 54 -27 75 -45 l40 -33 -76 -72 c-97 -91 -133 -122 -186 -159 -24 -16 -43
-33 -43 -38 0 -6 -12 -10 -26 -10 -25 0 -26 2 -19 38 4 20 15 62 26 92 10 30
19 60 19 68 0 23 70 166 87 180 20 15 60 16 65 2z m-1001 -341 c13 -7 38 -14
56 -15 39 -3 76 -22 68 -35 -4 -5 -31 -9 -61 -9 -30 0 -54 -4 -54 -10 0 -5 -6
-10 -12 -9 -14 0 -78 75 -78 91 0 12 50 4 81 -13z m500 -221 c8 -7 20 -25 27
-40 10 -24 9 -28 -4 -28 -23 0 -103 52 -104 68 0 7 13 12 33 12 18 0 40 -6 48
-12z m-4722 -671 c36 -24 93 -58 126 -76 52 -29 175 -143 175 -163 0 -4 17
-10 38 -14 35 -6 102 -40 102 -51 0 -10 -76 6 -106 22 -16 8 -34 15 -40 15
-25 0 -263 75 -321 101 -24 10 -47 19 -52 19 -16 0 -19 26 -12 89 4 34 8 64 9
66 1 3 2 12 2 20 0 22 6 20 79 -28z m825 -534 c4 -5 44 -16 89 -26 135 -29
151 -33 187 -49 130 -57 199 -82 300 -106 88 -21 176 -41 213 -48 30 -5 42
-14 61 -48 13 -22 32 -66 41 -96 10 -30 22 -62 26 -70 29 -51 48 -100 100
-255 16 -49 34 -103 40 -120 23 -63 49 -161 49 -185 0 -15 11 -41 25 -60 14
-19 25 -45 25 -59 0 -32 22 -94 51 -151 14 -27 25 -70 28 -114 5 -53 12 -79
31 -103 13 -18 27 -33 30 -33 4 0 21 -12 38 -27 17 -16 36 -32 44 -38 7 -5 30
-23 51 -38 20 -15 37 -33 37 -39 0 -5 11 -23 25 -40 14 -16 25 -37 25 -46 0
-22 105 -120 154 -144 119 -57 202 -105 211 -123 27 -55 61 -98 125 -163 38
-39 70 -78 70 -87 0 -29 48 -112 76 -130 32 -21 152 -27 175 -9 15 12 55 22
127 31 33 4 42 2 42 -10 0 -8 -6 -20 -14 -26 -8 -7 -17 -23 -20 -36 -4 -14
-14 -25 -23 -25 -20 0 -63 -38 -63 -56 0 -8 11 -38 25 -67 19 -42 36 -62 73
-86 27 -17 53 -31 58 -31 16 0 49 -51 64 -95 7 -22 21 -53 31 -70 27 -43 24
-52 -18 -66 -21 -6 -67 -33 -103 -59 -36 -26 -95 -62 -132 -81 -38 -18 -68
-36 -68 -41 0 -4 -7 -8 -16 -8 -9 0 -31 -8 -48 -19 -17 -10 -49 -24 -71 -31
-22 -6 -54 -18 -72 -26 -17 -8 -37 -14 -45 -14 -8 0 -18 -4 -24 -9 -12 -12
-151 -67 -192 -75 -18 -4 -45 -13 -60 -21 -15 -7 -59 -15 -99 -19 -39 -3 -82
-10 -94 -15 -55 -20 -199 47 -199 93 0 13 -7 30 -16 37 -13 11 -16 26 -12 79
3 36 1 106 -4 155 -5 50 -10 117 -11 150 -2 53 -4 60 -22 60 -17 0 -21 -9 -28
-60 -4 -33 -4 -71 0 -85 4 -14 8 -34 10 -45 2 -11 6 -35 9 -52 5 -29 3 -33
-14 -33 -32 0 -52 -27 -52 -71 0 -21 -4 -39 -8 -39 -4 0 -30 26 -58 57 -60 69
-94 103 -105 103 -5 0 -15 12 -23 28 -8 15 -31 45 -51 67 -21 22 -49 62 -64
89 -14 27 -33 60 -41 75 -12 21 -15 64 -14 216 1 105 2 205 4 224 1 18 -3 38
-9 44 -6 6 -11 26 -11 43 0 36 -17 54 -31 33 -9 -13 -8 -32 3 -93 7 -42 -20
-23 -35 25 -21 65 -21 117 -1 169 20 49 13 60 -24 39 -20 -11 -28 -25 -32 -54
-6 -49 -35 -57 -35 -10 -1 38 -43 127 -59 122 -15 -5 -20 -57 -7 -70 17 -17
13 -41 -8 -54 -10 -6 -21 -29 -25 -52 -3 -23 -11 -41 -16 -41 -13 0 -13 0 -34
113 -20 99 -34 130 -89 189 -44 47 -57 75 -57 126 0 25 -7 43 -20 55 -20 17
-24 37 -20 110 1 23 -6 50 -19 71 -12 18 -21 46 -21 60 0 20 -4 27 -17 24 -24
-4 -39 -67 -22 -93 7 -11 13 -42 15 -70 1 -27 10 -70 19 -95 10 -25 20 -63 22
-84 3 -22 14 -53 24 -70 24 -40 24 -46 -3 -46 -22 -1 -23 -1 -4 -15 11 -8 28
-15 38 -15 10 0 18 -5 18 -11 0 -6 19 -43 42 -82 37 -63 54 -114 61 -182 1
-14 -5 -21 -21 -23 -33 -5 -59 23 -67 69 -6 37 -26 52 -40 29 -13 -21 -34 -9
-62 35 -30 47 -50 62 -66 46 -21 -21 -8 -59 38 -109 51 -55 80 -109 91 -167 7
-42 65 -101 106 -110 19 -5 28 -13 28 -26 0 -27 33 -88 67 -124 15 -16 40 -45
55 -63 15 -17 53 -53 86 -80 77 -61 106 -97 125 -152 18 -53 65 -115 167 -219
81 -83 140 -150 140 -161 0 -9 -86 -70 -99 -70 -6 0 -11 -4 -11 -10 0 -5 -6
-10 -13 -10 -7 0 -22 -8 -33 -19 -11 -10 -40 -27 -65 -38 l-44 -20 -42 26
c-65 41 -138 116 -180 184 -20 34 -39 64 -42 67 -10 9 -39 62 -76 140 -20 41
-42 81 -49 90 -12 14 -34 55 -82 155 -10 22 -36 67 -56 100 -48 76 -78 139
-78 161 0 18 -37 64 -51 64 -16 0 -58 47 -103 117 -25 39 -46 75 -46 78 0 9
-33 79 -40 85 -21 18 -67 220 -74 319 l-4 64 -66 63 c-71 69 -106 126 -106
173 0 22 -10 40 -39 66 -51 47 -57 75 -31 129 11 23 20 55 20 70 0 15 5 36 11
47 19 36 -14 235 -56 335 -7 17 -21 62 -30 99 -19 75 -14 194 11 254 8 18 14
52 14 75 1 22 7 68 15 101 10 40 11 63 4 71 -13 15 -3 75 21 129 22 52 41 104
47 135 11 50 30 60 113 60 42 0 80 -3 84 -7z m1095 -298 c82 -19 180 -39 218
-45 99 -16 132 -30 181 -77 24 -24 48 -43 53 -43 5 0 15 -12 22 -27 6 -16 14
-30 17 -33 8 -8 29 -43 45 -75 9 -16 29 -52 45 -80 16 -27 42 -72 56 -100 15
-27 65 -108 112 -180 68 -103 114 -158 222 -266 74 -74 167 -160 205 -191 39
-30 132 -120 208 -198 119 -124 137 -147 137 -176 0 -18 -6 -34 -12 -37 -23
-7 -48 5 -48 24 0 29 -29 23 -36 -8 -9 -34 5 -56 45 -68 32 -9 32 -11 28 -55
-3 -25 -16 -76 -30 -114 -23 -64 -24 -71 -10 -93 8 -12 12 -31 9 -40 -6 -14
-13 -6 -35 34 -15 28 -37 64 -47 79 -25 37 -48 117 -48 171 -1 30 -8 49 -25
67 -18 19 -27 43 -33 92 -4 37 -12 72 -18 79 -6 7 -13 34 -15 60 -6 55 -8 60
-30 52 -19 -8 -20 -58 -1 -113 8 -22 17 -58 19 -80 3 -21 17 -64 31 -94 14
-30 26 -65 26 -78 0 -13 7 -36 15 -53 14 -26 14 -30 0 -35 -22 -9 -63 35 -67
71 -2 17 -10 31 -19 33 -21 4 -42 -43 -29 -67 5 -10 6 -21 3 -25 -10 -10 -71
-7 -78 4 -3 6 -15 10 -26 10 -12 0 -23 10 -29 25 -5 13 -23 36 -40 51 -17 15
-44 57 -62 93 -17 36 -34 73 -38 81 -10 22 -35 18 -38 -6 -3 -19 55 -148 103
-228 13 -23 37 -45 56 -53 19 -8 37 -21 42 -29 6 -10 29 -14 92 -14 46 0 87
-4 90 -10 3 -5 14 -10 24 -10 33 0 101 -101 101 -151 0 -22 -40 -43 -105 -54
-22 -4 -56 -12 -75 -20 -21 -8 -51 -10 -74 -6 -37 6 -40 9 -60 67 -17 49 -36
75 -100 141 -53 53 -84 95 -95 124 -15 41 -23 48 -106 91 -49 27 -110 57 -135
69 -51 23 -141 113 -169 168 -22 42 -89 113 -132 138 -16 9 -29 23 -29 30 0 6
-15 24 -34 38 -28 21 -34 33 -38 74 -3 27 -17 74 -31 104 -15 30 -27 62 -27
71 0 9 -8 33 -19 54 -10 20 -22 55 -25 76 -4 22 -14 49 -22 60 -8 11 -14 33
-14 48 0 25 3 28 31 26 42 -4 61 23 36 50 -9 10 -17 26 -17 36 0 27 -31 66
-53 66 -11 0 -29 -7 -38 -16 -17 -16 -19 -15 -28 7 -5 13 -20 53 -34 89 -32
83 -57 164 -57 185 0 9 -9 29 -19 44 -43 60 -97 201 -77 201 3 0 72 -16 155
-35z m3616 -1478 c3 -23 11 -57 16 -74 14 -43 4 -70 -30 -88 -44 -22 -58 8
-21 47 11 12 20 26 20 31 0 5 -9 11 -20 14 -22 6 -25 14 -10 29 5 5 12 25 14
44 2 19 4 39 5 43 3 22 20 -8 26 -46z m-2006 -71 c9 -10 8 -15 -3 -19 -14 -5
-36 10 -36 25 0 13 27 9 39 -6z m76 -80 c19 -18 35 -39 35 -46 0 -6 -13 -29
-28 -49 -15 -20 -33 -47 -40 -61 -22 -42 -53 -76 -58 -63 -3 7 -21 17 -40 23
-43 14 -44 39 -7 118 56 122 80 135 138 78z m213 -137 c20 -7 57 -26 82 -44
25 -17 74 -44 110 -60 162 -70 250 -119 250 -136 0 -24 -21 -69 -32 -69 -4 0
-8 -9 -8 -20 0 -11 -4 -20 -9 -20 -5 0 -16 -15 -24 -33 -9 -18 -24 -42 -34
-54 -10 -12 -27 -33 -37 -47 -23 -32 -56 -33 -113 -3 -24 12 -79 41 -123 65
-44 23 -89 42 -99 42 -11 0 -43 9 -71 20 -28 11 -83 27 -123 36 -39 9 -87 25
-106 37 l-33 20 23 18 c13 10 31 19 40 19 9 0 24 10 35 21 10 12 34 28 51 35
22 10 41 30 60 65 16 29 33 59 38 68 6 9 16 26 23 39 14 24 30 24 100 1z
m1619 -136 c8 -10 28 -38 44 -63 16 -25 63 -79 103 -121 41 -42 77 -86 81 -99
4 -12 4 -46 0 -76 -8 -65 -12 -65 -110 -25 -68 28 -70 29 -68 62 7 115 3 182
-11 204 -9 14 -16 30 -16 37 0 7 -11 21 -24 33 -28 23 -44 65 -25 65 6 0 18
-8 26 -17z m-3911 -28 c8 -8 21 -18 27 -22 17 -11 97 -132 97 -147 0 -7 -24
-13 -67 -15 -38 -1 -81 -3 -97 -4 -24 -2 -35 5 -53 32 -32 47 -29 63 20 120
47 55 52 58 73 36z m-172 -101 c9 -24 7 -52 -5 -59 -16 -10 -49 25 -49 52 0
18 5 23 24 23 13 0 27 -7 30 -16z m3146 -64 c14 -9 61 -32 105 -49 44 -18 100
-43 125 -56 25 -13 97 -45 160 -73 213 -92 405 -174 443 -190 l38 -15 -7 -76
c-4 -42 -9 -79 -13 -83 -15 -16 -167 -29 -400 -35 -243 -6 -329 -2 -566 28
-44 5 -116 10 -160 12 l-80 2 -6 55 c-7 63 12 192 31 215 7 8 20 28 29 44 9
16 24 40 33 53 39 51 108 164 108 176 0 7 7 23 16 37 l15 24 52 -26 c29 -14
63 -34 77 -43z m2482 20 c2 -25 -1 -35 -13 -38 -16 -3 -16 0 -11 73 3 30 21 4
24 -35z m-3544 -39 c9 -4 31 -16 49 -25 17 -9 44 -16 60 -16 31 0 120 -25 137
-39 6 -5 27 -12 46 -16 19 -4 53 -15 75 -25 22 -10 47 -20 55 -24 8 -3 38 -20
65 -37 28 -16 62 -35 78 -40 16 -7 30 -21 34 -37 7 -28 -22 -221 -35 -234 -7
-7 -415 9 -440 17 -16 6 -72 123 -72 151 0 12 -7 27 -15 34 -8 7 -18 30 -21
51 -4 21 -13 40 -20 43 -8 3 -14 11 -14 18 0 7 -7 27 -16 43 -21 39 -28 100
-14 125 12 22 21 24 48 11z m-1793 -68 c-1 -27 -2 -81 -3 -120 -1 -40 -5 -73
-9 -73 -13 0 -113 96 -113 108 0 6 -6 15 -13 19 -12 8 -47 57 -47 68 0 3 15 5
33 5 18 0 37 4 43 9 10 10 69 29 95 30 12 1 15 -9 14 -46z m1693 -102 c22 -19
30 -51 12 -51 -13 0 -50 41 -50 57 0 18 11 16 38 -6z m2450 -43 c19 -31 15
-39 -15 -32 -14 4 -22 16 -25 35 -6 38 16 36 40 -3z m-223 -221 c91 -32 95
-49 13 -66 -35 -8 -79 -14 -98 -15 l-35 -1 -2 59 -3 58 27 -5 c16 -3 60 -16
98 -30z m-6722 -91 c102 -52 208 -111 234 -129 49 -35 140 -84 203 -110 19 -8
58 -24 85 -35 28 -12 69 -27 93 -33 23 -7 42 -16 42 -21 0 -4 6 -8 14 -8 23 0
108 -53 202 -125 54 -41 70 -58 143 -150 36 -44 68 -81 73 -83 4 -2 8 -10 8
-19 0 -11 -7 -13 -27 -9 -16 3 -68 8 -118 11 -88 5 -108 8 -230 39 -95 24
-135 40 -135 54 0 16 28 69 51 97 9 11 20 35 24 53 5 26 3 32 -9 32 -9 0 -21
-11 -26 -24 -5 -13 -17 -30 -27 -37 -10 -8 -26 -30 -36 -49 -14 -29 -27 -38
-73 -51 -79 -24 -94 -17 -94 40 0 25 7 66 16 90 8 24 13 50 10 58 -9 23 -46
15 -56 -12 -5 -14 -14 -25 -20 -25 -6 0 -10 -30 -10 -74 0 -57 -3 -75 -15 -80
-29 -11 -225 23 -305 53 -14 5 -46 12 -71 16 -37 5 -48 11 -53 27 -3 12 -1 27
5 34 7 9 6 19 -3 33 -23 38 -48 20 -48 -35 0 -13 -4 -24 -10 -24 -12 0 -183
80 -190 89 -3 4 -37 17 -76 29 -39 13 -85 32 -103 43 -17 10 -37 19 -44 19 -7
0 -43 20 -80 45 -56 38 -67 50 -67 74 0 25 11 35 83 82 45 29 119 78 165 108
169 113 161 109 228 106 55 -3 82 -14 247 -99z m8101 -1 c20 -8 36 -20 36 -25
0 -6 11 -16 25 -22 41 -19 29 -31 -26 -26 -58 6 -66 12 -75 56 -7 37 -8 37 40
17z m1311 -229 c52 -15 61 -46 13 -46 -46 0 -148 32 -148 48 0 16 80 15 135
-2z m-4229 -42 c27 -4 33 -11 47 -55 21 -63 13 -227 -11 -245 -9 -6 -13 -18
-10 -26 4 -8 0 -46 -9 -84 -8 -38 -13 -90 -10 -116 2 -27 0 -48 -4 -48 -5 0
-9 4 -9 10 0 6 -9 6 -22 1 -29 -10 -305 5 -341 18 l-26 10 1 173 c0 164 1 175
23 203 12 17 25 40 29 51 3 12 15 29 26 39 11 10 20 31 20 46 0 25 4 28 43 32
46 4 203 -1 253 -9z m2050 1 c156 -17 197 -25 244 -49 18 -9 44 -16 57 -16 14
0 37 -6 51 -13 75 -38 121 -56 157 -62 22 -3 54 -10 70 -15 60 -17 111 -29
177 -41 l67 -12 50 -103 c28 -56 51 -110 51 -120 0 -23 -39 -64 -61 -64 -9 0
-22 7 -29 15 -15 17 -71 20 -87 4 -8 -8 -20 -8 -46 0 -19 6 -70 14 -113 17
-200 13 -230 17 -269 38 -22 11 -49 29 -59 39 -11 9 -25 17 -32 17 -7 0 -15
13 -19 29 -7 31 -38 47 -54 27 -26 -31 -8 -116 24 -116 17 0 91 -37 124 -62
13 -10 35 -18 48 -18 13 0 34 -5 46 -12 12 -6 42 -13 67 -14 183 -10 246 -16
254 -24 6 -6 27 -10 47 -10 21 0 49 -4 62 -9 34 -13 97 -119 97 -163 0 -11 13
-33 30 -49 26 -26 34 -29 67 -23 21 4 43 10 48 14 6 4 24 10 40 13 26 5 32 1
43 -21 6 -14 12 -39 12 -55 0 -16 8 -42 17 -57 14 -24 15 -34 5 -54 -10 -23
-9 -26 13 -32 14 -3 25 -10 25 -15 0 -5 6 -9 14 -9 7 0 30 -19 51 -42 112
-130 151 -169 172 -174 13 -4 23 -9 23 -13 0 -9 60 -39 120 -61 41 -15 46 -21
63 -71 10 -30 22 -103 27 -164 5 -60 14 -134 19 -164 6 -29 11 -77 11 -106 0
-59 11 -52 -114 -75 -32 -6 -83 -19 -112 -29 -40 -13 -66 -16 -101 -10 -41 6
-51 4 -70 -13 -22 -20 -24 -20 -90 -5 -37 9 -91 19 -120 22 -46 6 -53 4 -65
-14 -16 -27 -43 -27 -223 -1 -77 11 -159 20 -183 20 -72 0 -348 67 -459 111
-70 28 -71 29 -82 98 -6 36 -10 80 -10 96 -1 84 -9 136 -24 153 -10 10 -17 26
-17 35 0 9 -2 17 -4 17 -2 0 -11 3 -19 6 -37 14 -64 -66 -30 -91 18 -13 31
-120 19 -151 -6 -15 -9 -16 -19 -3 -7 8 -19 32 -26 54 -7 22 -16 49 -20 60
-23 58 -44 172 -49 265 -3 61 -10 113 -18 125 -7 11 -13 22 -13 25 1 16 -15
40 -25 40 -23 0 -133 264 -156 372 -6 32 -18 64 -26 72 -8 8 -14 18 -14 23 0
5 -9 24 -19 44 -25 47 -19 164 10 180 26 13 79 94 79 119 0 12 4 29 9 39 9 17
1 122 -15 208 -6 31 -5 32 32 36 79 8 115 7 250 -8z m-380 -36 c17 -33 20 -71
16 -174 -2 -57 -5 -64 -47 -110 -25 -28 -45 -60 -45 -72 0 -36 -15 -34 -52 5
-58 62 -71 95 -72 197 -1 70 -5 98 -19 119 -10 15 -16 31 -12 34 6 7 138 28
187 31 21 1 31 -6 44 -30z m-1306 11 c115 -14 130 -18 130 -36 0 -8 8 -27 17
-41 l18 -26 -31 6 c-74 14 -99 -22 -36 -51 20 -9 38 -20 40 -24 2 -3 14 -19
27 -34 24 -27 24 -28 45 -9 18 16 23 17 46 4 14 -7 37 -27 51 -43 30 -36 221
-176 243 -177 8 -1 23 -1 32 0 10 1 38 -7 64 -18 56 -25 96 -26 155 -5 34 12
52 13 79 5 19 -5 69 -12 110 -15 122 -9 135 -14 176 -65 l36 -46 -5 -86 c-6
-92 -33 -161 -85 -217 -38 -41 -69 -134 -109 -317 -5 -22 -14 -41 -21 -41 -7
-1 -16 -2 -22 -3 -5 0 -23 -14 -38 -31 -33 -34 -44 -37 -62 -15 -7 8 -20 15
-29 15 -10 0 -28 11 -41 25 -27 29 -46 31 -72 9 -15 -15 -23 -15 -64 -4 -39
11 -64 30 -134 101 -57 58 -102 95 -133 108 -43 18 -112 82 -268 246 -10 12
-19 28 -19 37 0 9 -26 37 -59 62 -50 39 -76 65 -119 121 -40 52 -65 148 -45
169 4 4 8 46 9 94 1 48 5 99 9 115 9 33 -8 36 -42 8 -21 -17 -23 -28 -23 -113
0 -52 -3 -98 -6 -101 -4 -3 -15 -2 -26 4 -16 9 -19 17 -13 42 7 38 26 211 27
247 0 14 -3 44 -7 68 l-8 42 59 0 c33 0 98 -5 144 -10z m-744 -32 c-8 -38 -47
-98 -98 -150 -43 -44 -59 -47 -73 -16 -12 25 -25 31 -43 19 -17 -10 -20 -114
-4 -133 16 -20 70 -11 85 13 7 11 17 19 23 19 15 0 25 -48 12 -56 -5 -4 -9
-29 -7 -58 1 -28 1 -66 1 -83 -2 -33 -2 -33 -54 -33 -64 0 -186 17 -213 29
-63 28 -165 61 -187 61 -27 0 -78 31 -79 48 0 9 -2 36 -4 60 -4 49 -16 41 140
98 128 46 234 96 293 138 45 31 157 75 196 76 16 0 17 -5 12 -32z m1318 0
c155 0 301 2 326 6 l45 7 33 -48 c27 -41 32 -58 32 -106 0 -57 30 -168 53
-196 10 -12 7 -13 -18 -7 -54 13 -80 12 -80 -4 0 -18 -11 -18 -134 3 -98 17
-111 16 -111 -9 0 -18 -37 -18 -70 1 -14 8 -37 14 -53 15 -39 0 -183 98 -237
161 -25 28 -60 58 -77 66 -18 7 -32 18 -30 25 1 6 -8 17 -21 23 -26 14 -51 44
-52 63 0 9 14 11 56 7 31 -3 183 -6 338 -7z m2181 -183 c22 -3 130 -12 240
-21 198 -15 271 -26 305 -44 41 -22 12 -372 -36 -427 -14 -16 -34 -47 -45 -70
-11 -24 -31 -51 -43 -60 -12 -10 -32 -33 -46 -52 l-23 -34 -23 28 c-13 16 -26
47 -30 68 -4 28 -19 52 -51 83 -42 42 -44 47 -38 83 5 34 4 40 -13 45 -11 4
-32 4 -46 0 -21 -5 -27 -2 -35 18 -5 14 -15 31 -23 39 -16 19 -32 43 -59 94
-12 22 -32 52 -46 66 l-24 26 17 62 c12 43 14 65 7 72 -16 16 -53 -11 -53 -38
0 -13 -4 -23 -8 -23 -8 0 -52 80 -52 95 0 4 19 4 43 1 23 -4 60 -9 82 -11z
m-4155 -115 c0 -36 -4 -50 -14 -50 -15 0 -98 35 -109 47 -9 8 77 51 106 52 14
1 17 -8 17 -49z m-4049 -29 c35 -10 92 -24 126 -31 35 -7 60 -17 57 -21 -3 -5
-42 -9 -88 -9 -76 0 -87 3 -129 31 -44 29 -59 49 -38 49 5 0 37 -8 72 -19z
m3727 -74 c37 -19 99 -48 137 -65 123 -55 239 -116 247 -132 19 -36 58 -130
58 -139 0 -6 -4 -11 -10 -11 -32 0 17 -59 83 -99 32 -20 46 -22 87 -17 50 7
83 -10 41 -21 -15 -4 -21 -13 -21 -34 0 -16 -5 -29 -11 -29 -12 0 -122 -50
-129 -59 -3 -4 -17 -12 -32 -18 -47 -21 -33 -34 29 -28 74 7 91 12 103 35 6
11 29 30 53 44 40 24 44 24 94 11 29 -8 67 -20 85 -28 18 -8 53 -18 77 -21 33
-5 58 -19 105 -59 33 -29 67 -60 74 -70 8 -10 25 -30 38 -44 13 -14 24 -32 24
-39 0 -8 9 -14 20 -14 11 0 37 -16 57 -36 21 -19 57 -48 80 -64 87 -59 110
-76 170 -127 52 -45 104 -79 198 -130 11 -6 40 -17 64 -24 61 -18 105 -50 109
-78 l4 -24 -130 7 c-105 5 -145 12 -218 37 -49 16 -111 37 -139 45 -84 25
-139 46 -155 59 -19 16 -97 33 -209 45 -261 29 -343 55 -379 119 -11 20 -39
56 -62 81 -23 25 -50 56 -58 70 -27 41 -134 174 -149 185 -7 5 -17 23 -21 39
-6 21 -28 43 -78 78 -89 61 -132 107 -188 199 -24 41 -58 87 -75 103 -17 17
-31 33 -31 37 0 5 -13 28 -30 52 -16 25 -30 50 -30 56 0 6 -4 11 -10 11 -14 0
-93 108 -86 118 3 5 38 10 76 11 63 1 79 -3 138 -32z m-308 -15 c0 -4 13 -20
28 -37 15 -16 62 -79 104 -140 42 -60 85 -119 97 -129 12 -11 21 -24 21 -31 0
-11 25 -53 88 -148 30 -45 24 -55 -22 -33 -19 9 -47 16 -64 16 -26 0 -31 4
-36 33 -8 45 -31 75 -46 61 -7 -7 -8 -19 -1 -37 9 -24 8 -27 -10 -27 -20 0
-60 17 -69 30 -3 4 -18 13 -35 21 -20 9 -33 26 -40 49 -14 50 -23 60 -51 60
-21 0 -24 -4 -24 -39 0 -22 8 -49 18 -62 10 -13 21 -32 25 -41 3 -10 13 -18
22 -18 8 0 20 -11 25 -24 7 -18 14 -23 30 -19 11 3 28 -1 38 -9 9 -9 35 -18
57 -21 22 -4 67 -19 100 -35 33 -16 78 -35 100 -42 22 -7 59 -21 82 -32 24
-10 49 -18 57 -18 8 0 25 -14 38 -30 51 -66 93 -118 137 -168 25 -30 58 -73
73 -95 15 -23 36 -54 48 -69 12 -15 19 -32 15 -37 -6 -10 -92 -71 -100 -71 -3
0 -28 -18 -57 -40 -29 -22 -56 -40 -60 -40 -3 0 -50 -25 -104 -55 -185 -105
-306 -152 -454 -175 -92 -14 -295 -11 -407 6 -88 14 -122 15 -216 5 -129 -12
-211 -26 -229 -38 -33 -20 -243 13 -264 42 -6 8 -32 21 -58 29 -25 8 -72 31
-103 52 -31 21 -73 43 -92 50 -20 7 -49 19 -66 28 -16 9 -36 16 -42 16 -18 0
-16 27 2 34 40 15 5 46 -53 46 -19 0 -21 3 -13 18 11 20 -2 42 -25 42 -15 0
-11 97 5 113 14 14 15 57 1 57 -5 0 -10 -6 -10 -14 0 -8 -6 -16 -13 -19 -7 -2
-19 -29 -26 -58 -18 -72 -28 -90 -47 -82 -13 5 -15 20 -11 97 6 122 24 226 42
246 8 9 15 29 15 43 0 38 -30 35 -55 -6 l-19 -32 -4 29 c-2 16 1 33 7 39 6 6
11 26 11 44 0 35 13 41 50 23 11 -5 29 -14 40 -20 11 -5 82 -10 159 -11 153
-1 154 -1 182 -66 8 -18 20 -33 27 -33 7 0 15 -7 18 -15 11 -27 24 -16 24 20
0 19 -4 35 -9 35 -5 0 -20 14 -32 32 -17 23 -19 33 -10 36 7 2 27 20 44 39 28
31 35 33 69 28 28 -5 42 -2 54 9 8 9 24 16 34 16 10 0 22 5 25 10 3 6 15 10
26 10 10 0 19 4 19 8 0 5 25 40 55 79 46 60 65 75 130 107 42 20 78 45 81 54
14 44 39 99 53 115 34 41 165 117 200 117 11 0 61 14 112 31 171 57 289 74
289 41z m1820 -10 c26 -32 40 -61 40 -81 0 -28 144 -196 188 -220 12 -6 22
-18 22 -26 0 -21 134 -175 153 -175 4 0 7 -11 7 -25 0 -29 -22 -42 -42 -25 -7
6 -56 39 -109 74 -105 68 -179 132 -179 153 0 7 -4 13 -9 13 -10 0 -76 87 -99
129 -8 16 -12 56 -11 113 2 91 11 105 39 70z m2896 -35 c4 -12 21 -40 39 -62
17 -22 39 -52 48 -67 17 -27 17 -28 -12 -43 -48 -24 -58 -19 -90 49 -17 35
-35 67 -41 71 -15 9 -12 47 6 73 18 26 38 17 50 -21z m-6581 -115 c102 -33
248 -62 317 -62 82 0 66 -20 -19 -22 -223 -7 -333 14 -403 76 -25 22 -46 43
-48 47 -4 10 45 -3 153 -39z m2645 -30 c14 -2 63 -15 109 -28 50 -14 127 -27
188 -31 61 -3 107 -11 113 -18 10 -12 13 -46 10 -140 0 -27 2 -67 5 -87 7 -37
6 -38 -24 -38 -16 0 -33 5 -36 10 -3 6 -16 10 -28 10 -34 0 -84 35 -111 79
-16 25 -38 44 -61 52 -19 7 -38 22 -41 33 -8 27 -44 66 -61 66 -15 0 -18 -26
-3 -35 13 -8 42 -76 35 -83 -12 -12 -74 29 -90 60 -77 146 -86 179 -46 162 9
-3 27 -9 41 -12z m732 -108 c37 -9 72 -22 79 -30 6 -8 17 -14 24 -14 6 0 42
-35 78 -79 37 -43 93 -101 124 -128 64 -56 150 -123 158 -123 3 0 27 -15 53
-33 26 -18 55 -36 65 -40 58 -22 -44 -80 -163 -92 -41 -5 -86 -8 -100 -8 -39
-1 -152 23 -183 39 -16 8 -33 14 -39 14 -13 0 -44 28 -187 175 -25 26 -53 45
-66 45 -12 0 -31 10 -42 23 -26 28 -46 137 -33 173 6 14 10 43 10 66 l0 40 78
-7 c42 -3 107 -13 144 -21z m-2312 11 c0 -2 -14 -12 -30 -20 -33 -17 -84 -67
-113 -108 -10 -16 -31 -29 -52 -33 -20 -3 -40 -16 -50 -30 -15 -24 -45 -33
-45 -14 0 27 -42 5 -77 -40 -27 -35 -50 -53 -78 -62 -55 -18 -281 -14 -304 4
-23 20 -148 78 -166 78 -8 0 -15 6 -15 13 0 9 18 12 71 9 94 -6 278 15 359 40
189 59 376 122 385 129 5 5 18 9 30 9 11 1 31 7 45 15 26 15 40 18 40 10z
m4138 -54 c2 -13 22 -67 44 -120 22 -53 51 -125 65 -161 13 -36 33 -79 44 -97
25 -41 36 -127 19 -148 -10 -13 -10 -19 4 -33 9 -10 20 -38 25 -63 16 -74 52
-191 72 -231 10 -20 12 -48 4 -48 -3 0 -31 14 -62 30 -31 17 -69 30 -85 30
-26 0 -258 107 -282 131 -6 5 -17 9 -25 9 -8 0 -22 6 -30 14 -9 8 -36 25 -61
38 -59 30 -65 64 -17 93 40 25 67 82 74 154 2 31 11 73 19 94 8 20 14 49 14
63 0 15 25 62 59 112 33 48 66 104 75 125 17 42 39 45 44 8z m-5132 -152 c17
-27 -40 -45 -154 -49 -9 0 -12 -11 -10 -32 3 -30 6 -33 42 -36 21 -2 53 4 71
12 42 20 55 20 56 -1 1 -10 3 -25 3 -33 4 -37 32 -108 56 -140 46 -61 54 -92
45 -188 -4 -48 -7 -99 -7 -114 1 -37 -13 -43 -46 -20 -15 11 -37 23 -50 26
-27 9 -20 26 8 19 16 -4 20 0 20 20 0 33 -14 37 -64 19 -41 -15 -42 -15 -97
21 -31 20 -78 48 -105 63 -27 14 -58 35 -69 45 -11 9 -33 21 -50 25 -39 9 -74
35 -75 55 0 8 8 24 18 35 9 10 64 72 121 137 57 65 113 124 125 132 24 18 151
21 162 4z m117 -101 c14 -11 15 -19 7 -48 -5 -19 -12 -48 -15 -63 -8 -37 -28
-29 -36 14 -20 101 -19 109 5 109 12 0 30 -6 39 -12z m6971 -74 c15 -15 22
-54 10 -54 -3 0 -22 16 -42 35 l-37 35 27 0 c15 0 34 -7 42 -16z m-3077 -159
c103 -69 263 -245 263 -291 0 -16 8 -28 23 -33 36 -15 113 -109 90 -112 -4 0
-28 -2 -53 -4 -25 -1 -98 -8 -163 -14 -65 -6 -122 -9 -127 -6 -4 3 -21 36 -36
75 l-27 69 22 62 c13 33 20 63 17 66 -14 14 -37 -11 -47 -52 -6 -25 -14 -45
-16 -45 -3 0 -20 16 -38 36 -37 40 -50 39 -60 -5 l-6 -30 -42 15 c-68 24 -159
84 -306 201 -12 9 12 14 39 8 20 -4 34 -15 37 -26 6 -20 47 -27 57 -10 3 5 45
15 93 21 86 12 187 53 214 87 16 18 22 17 66 -12z m-4411 -70 c29 -14 55 -29
59 -34 3 -6 26 -20 51 -33 25 -12 55 -32 67 -44 12 -12 31 -24 43 -28 52 -16
98 -93 81 -136 -12 -33 -38 -146 -36 -155 3 -12 -18 -85 -30 -103 -13 -21 -85
-26 -128 -10 -21 9 -65 19 -98 23 -33 4 -68 13 -79 21 -11 8 -27 14 -36 14 -8
0 -21 9 -28 20 -12 20 -46 27 -55 13 -3 -5 1 -24 9 -43 16 -40 51 -59 124 -70
25 -4 72 -15 105 -25 120 -34 159 -43 169 -39 15 6 49 61 65 104 7 19 17 44
21 55 4 11 12 43 18 70 20 94 37 145 46 145 5 0 17 -7 27 -16 10 -9 33 -23 51
-32 26 -14 32 -22 30 -42 -8 -64 -4 -201 8 -250 7 -30 28 -83 47 -117 18 -34
33 -68 33 -75 0 -7 11 -33 24 -58 13 -25 27 -56 31 -68 4 -13 19 -43 34 -65
34 -53 76 -145 69 -152 -7 -7 -107 14 -138 30 -36 18 -148 53 -195 61 -37 7
-170 58 -272 105 -24 10 -54 19 -67 19 -14 0 -27 4 -30 9 -3 5 -23 12 -43 16
-21 4 -70 22 -110 41 -40 18 -84 36 -98 40 -15 4 -49 17 -76 30 -27 13 -51 24
-54 24 -3 0 -22 11 -43 24 -20 12 -48 27 -62 31 -14 4 -49 31 -79 60 l-54 52
35 54 c69 106 144 198 195 239 34 28 64 65 87 109 50 92 61 104 85 96 22 -7
68 33 104 88 21 33 27 33 93 2z m4978 -1 c34 -16 62 -36 73 -55 10 -16 23 -29
30 -29 23 0 33 -38 27 -102 -3 -35 -7 -69 -9 -76 -5 -14 -115 88 -115 107 0 7
-9 24 -20 38 -11 14 -20 32 -20 40 0 8 -9 22 -20 31 -10 10 -22 29 -26 45 -8
35 6 35 80 1z m3085 -34 c12 -6 28 -27 36 -47 15 -35 15 -36 -17 -72 -18 -20
-43 -59 -55 -86 -61 -140 -120 -253 -149 -286 -8 -8 -14 -33 -14 -55 0 -87
-23 -107 -60 -54 -36 51 -59 134 -75 267 -15 125 -20 334 -10 345 11 10 323 0
344 -12z m-2705 -245 c15 -8 34 -15 40 -15 7 0 38 -15 69 -34 32 -19 90 -45
130 -57 79 -24 97 -35 97 -55 0 -14 -131 -149 -161 -164 -25 -14 -76 -12 -82
3 -2 6 -40 54 -83 106 -44 51 -86 103 -94 115 -8 11 -23 30 -32 40 -26 28 -22
41 15 60 40 20 64 20 101 1z m3387 -5 c5 0 9 -7 9 -15 0 -19 -46 -20 -53 -1
-7 18 3 28 21 21 7 -3 18 -5 23 -5z m-5391 -41 c14 -5 73 -13 131 -18 86 -8
116 -16 163 -41 32 -16 64 -30 71 -30 7 0 66 -17 132 -39 201 -65 225 -71 383
-82 156 -11 179 -18 180 -56 0 -16 -418 -16 -495 -1 -27 6 -101 12 -164 14
-63 2 -129 8 -145 15 -96 37 -223 108 -265 147 -25 25 -61 56 -78 69 -18 14
-30 29 -27 34 6 10 74 3 114 -12z m1558 -171 c21 -21 13 -44 -32 -94 l-45 -49
-109 0 c-90 0 -111 3 -126 18 -10 9 -23 17 -31 17 -7 0 -27 15 -44 33 l-32 32
83 12 c46 6 110 12 143 13 33 1 80 7 105 14 60 18 74 18 88 4z m1040 -69 c31
-16 62 -29 68 -29 16 0 54 -87 54 -125 0 -31 -5 -37 -37 -53 -21 -9 -47 -26
-58 -38 -12 -11 -35 -26 -53 -32 -27 -9 -92 -52 -139 -92 -19 -16 -27 -12 -71
33 -22 23 -58 56 -79 73 -21 17 -44 42 -52 56 -13 25 -11 28 65 99 43 41 91
86 107 101 15 15 36 32 45 38 25 15 85 2 150 -31z m1680 -65 c12 -4 22 -11 22
-18 0 -7 -32 -11 -100 -11 -55 0 -100 2 -100 4 0 25 116 41 178 25z m-1373
-40 c22 -8 69 -19 105 -24 36 -5 97 -14 135 -20 39 -6 95 -13 125 -16 30 -3
125 -14 210 -24 85 -11 168 -20 183 -20 25 0 28 -3 22 -22 -9 -31 -95 -108
-120 -108 -33 0 -109 26 -113 38 -2 7 -10 12 -18 12 -26 0 -14 -25 28 -54 l41
-30 -33 -25 c-58 -44 -68 -55 -75 -79 -5 -17 -1 -24 17 -31 27 -10 48 3 48 30
0 17 67 69 89 69 4 0 33 11 63 24 41 18 72 44 119 96 61 69 65 72 99 66 19 -3
109 -13 200 -21 223 -21 242 -23 254 -36 8 -7 6 -13 -7 -20 -9 -6 -25 -18 -35
-28 -27 -30 -85 -61 -111 -61 -21 0 -61 -32 -61 -50 0 -4 -12 -13 -27 -20 -16
-8 -40 -23 -56 -33 -15 -10 -53 -21 -85 -24 -33 -3 -65 -13 -77 -23 -45 -39
-84 -51 -163 -49 -42 1 -87 -1 -98 -5 -12 -3 -41 -2 -65 5 -72 18 -94 17 -94
-6 0 -23 -46 -36 -120 -33 -54 2 -95 -8 -95 -23 0 -12 -37 -12 -45 1 -3 5 -23
14 -43 20 -51 14 -134 86 -130 114 3 18 11 22 51 24 31 2 50 8 54 18 8 20 -15
44 -43 44 -43 0 -23 34 66 115 93 85 105 105 59 105 -23 0 -178 -155 -191
-192 -25 -72 -79 -51 -125 47 -22 50 -28 77 -31 163 l-4 102 28 0 c16 -1 47
-8 69 -16z m-7265 -38 c69 -1 131 -5 138 -10 9 -6 4 -24 -24 -74 -19 -37 -44
-76 -55 -88 -10 -11 -19 -25 -19 -30 0 -5 -18 -29 -40 -53 -22 -24 -40 -46
-40 -50 -1 -11 -107 -111 -119 -111 -6 0 -22 -7 -35 -16 -36 -23 -158 -24
-183 -1 -11 9 -28 17 -37 17 -21 0 -67 30 -113 74 -28 25 -33 37 -33 75 1 58
20 87 49 72 22 -12 37 0 27 24 -3 8 8 25 26 40 29 24 48 34 168 87 30 14 62
33 70 42 11 14 22 17 55 11 22 -4 96 -8 165 -9z m5874 -81 c28 -21 5 -44 -45
-43 -45 0 -47 4 -17 35 25 27 36 28 62 8z m1236 -77 c6 -34 20 -79 30 -99 10
-19 20 -49 22 -65 3 -27 -2 -31 -62 -61 -36 -17 -71 -32 -78 -32 -18 -1 -87
47 -150 105 -49 45 -51 49 -35 66 9 10 24 18 34 18 10 0 26 11 35 24 8 14 28
27 42 31 15 3 50 21 77 40 28 19 55 34 61 35 6 0 17 -28 24 -62z m-694 -141
c74 -81 78 -87 67 -98 -7 -7 -22 4 -49 37 -22 27 -47 56 -56 66 -19 19 -24 38
-10 38 5 0 26 -19 48 -43z m-75 -80 c23 -32 51 -63 62 -68 27 -15 17 -56 -36
-144 -23 -38 -46 -83 -52 -100 -5 -16 -22 -35 -36 -42 -20 -10 -28 -22 -32
-55 -3 -24 -1 -48 5 -55 17 -21 -4 -58 -75 -132 -54 -56 -74 -71 -97 -71 -38
0 -46 28 -30 107 7 32 11 89 10 128 -4 108 0 154 16 199 9 22 19 55 24 71 25
94 46 128 102 172 31 24 59 54 62 66 7 25 -2 35 77 -76z m872 -36 c14 -6 28
-18 31 -29 4 -10 23 -28 44 -40 21 -11 46 -30 57 -42 10 -11 22 -20 27 -20 5
0 33 -15 61 -33 58 -36 86 -52 172 -97 33 -17 77 -48 98 -68 34 -34 36 -38 20
-49 -19 -15 -50 -17 -55 -5 -1 4 -59 36 -128 70 -149 73 -169 87 -152 104 21
21 13 28 -27 22 -34 -6 -51 0 -123 39 -46 25 -93 55 -105 66 -12 12 -27 21
-32 21 -41 0 2 41 64 61 11 4 21 7 22 8 1 1 13 -3 26 -8z m-598 -55 c20 -14
41 -27 48 -29 7 -2 9 -7 6 -11 -10 -10 -74 23 -87 45 -16 25 -10 24 33 -5z
m-1675 -103 c0 -24 -46 -61 -86 -69 -62 -11 -94 22 -49 52 45 29 135 41 135
17z m3442 -207 c69 -31 110 -70 190 -186 37 -52 100 -131 141 -175 41 -44 72
-83 69 -87 -8 -8 -193 15 -252 31 -106 28 -147 44 -275 102 -132 60 -144 68
-217 144 -43 44 -78 84 -78 90 0 6 35 24 78 40 75 29 91 34 162 53 63 18 126
13 182 -12z m-687 -339 c11 -8 88 -49 170 -91 83 -43 156 -84 163 -90 7 -7 19
-36 26 -64 l14 -50 -27 -7 c-61 -15 -68 -45 -10 -45 l40 0 -5 -93 c-9 -139 -9
-184 -1 -278 12 -138 -7 -190 -59 -156 -12 8 -37 18 -56 22 -19 4 -51 16 -71
27 -20 10 -54 22 -75 25 -43 7 -189 61 -244 91 -77 41 -97 57 -108 81 -6 14
-26 48 -43 74 l-32 49 24 51 c13 28 46 80 73 116 26 36 51 73 54 81 3 8 13 24
23 35 10 11 24 38 32 60 20 53 60 147 70 163 10 15 18 15 42 -1z m445 -295 c0
-31 4 -73 9 -92 21 -83 22 -100 2 -100 -15 0 -19 11 -25 68 -17 166 -17 200 5
187 5 -4 9 -32 9 -63z m86 -21 c8 -28 -7 -78 -21 -71 -6 3 -10 24 -10 47 0 22
-3 44 -7 49 -5 4 -8 17 -8 28 0 20 1 20 20 -4 11 -14 23 -36 26 -49z m-866
-256 c0 -8 10 -25 22 -37 17 -17 18 -23 8 -26 -8 -3 -16 0 -18 7 -2 6 -15 11
-28 11 -24 0 -30 14 -18 44 8 20 34 21 34 1z"/>
<path d="M10148 9590 c12 -5 28 -7 36 -4 8 3 24 -4 35 -15 12 -12 27 -21 34
-21 7 0 31 -9 52 -20 30 -15 62 -21 128 -23 73 -2 88 -5 93 -19 3 -10 13 -18
23 -18 10 0 38 -17 62 -38 78 -67 126 -102 142 -102 8 0 22 -11 31 -25 9 -14
23 -25 30 -25 8 0 16 -6 19 -13 2 -6 25 -38 51 -69 50 -62 53 -72 32 -113 -8
-15 -12 -33 -10 -40 6 -13 47 -35 68 -35 34 0 67 83 48 124 -22 49 -61 142
-66 159 -3 9 -13 17 -23 17 -10 0 -36 23 -58 51 -43 54 -69 74 -86 64 -5 -4
-47 24 -92 62 -149 123 -115 113 -359 112 -138 0 -205 -3 -190 -9z"/>
<path d="M12777 4073 c-12 -11 -8 -40 8 -53 13 -11 15 -7 15 24 0 34 -8 44
-23 29z"/>
<path d="M12720 2861 c0 -12 6 -21 15 -21 8 0 25 -19 37 -42 l23 -43 3 54 c2
29 1 55 -1 58 -3 2 -21 7 -41 10 -32 5 -36 3 -36 -16z"/>
<path d="M6915 1740 c-3 -4 -2 -16 1 -25 4 -10 1 -21 -7 -26 -11 -7 -8 -14 16
-34 60 -49 65 -55 65 -82 -1 -45 -32 -77 -74 -76 -37 1 -166 66 -166 84 0 5
-11 14 -25 19 -14 5 -25 16 -25 25 0 19 -39 20 -46 1 -8 -22 26 -62 72 -85 55
-28 70 -46 54 -66 -16 -19 -3 -37 21 -30 24 8 25 -12 2 -45 -23 -35 -28 -37
-94 -44 -62 -7 -164 -34 -157 -42 3 -2 40 5 83 16 78 20 78 20 92 0 8 -11 21
-20 30 -20 20 0 62 44 89 95 17 32 28 40 50 41 16 0 52 4 79 7 47 7 53 5 88
-25 20 -18 49 -42 63 -53 l26 -21 -25 -74 c-14 -41 -30 -94 -36 -117 -10 -35
-16 -43 -36 -43 -13 0 -25 6 -28 13 -3 10 -9 10 -26 0 -11 -7 -28 -13 -36 -13
-8 0 -15 -7 -15 -15 0 -8 -5 -15 -11 -15 -20 0 -131 43 -204 79 -69 33 -193
62 -342 79 -88 10 -106 32 -27 33 32 0 86 7 119 14 l60 14 -70 -7 c-38 -4 -94
-6 -122 -5 -43 2 -53 -1 -53 -13 0 -12 -6 -15 -22 -10 -13 3 -52 11 -88 17
-36 6 -77 17 -92 25 -36 19 -94 18 -102 -1 -6 -17 -4 -18 61 -35 23 -6 45 -15
48 -20 10 -16 -61 -52 -180 -92 -125 -43 -129 -43 -170 -22 -16 8 -50 18 -75
21 -54 7 -132 53 -162 97 -37 53 -63 61 -77 24 -13 -36 60 -102 174 -156 81
-39 234 -53 284 -27 16 8 64 27 108 43 43 16 96 41 117 55 46 32 110 36 159
10 18 -9 57 -21 87 -26 30 -5 75 -12 100 -17 25 -5 72 -13 105 -19 59 -10 155
-41 205 -66 14 -7 53 -22 87 -34 79 -28 173 -88 173 -111 0 -10 -7 -52 -16
-95 -14 -66 -14 -96 -5 -212 7 -75 9 -138 7 -141 -13 -12 -116 143 -116 174 0
30 -13 43 -48 50 -27 6 -32 4 -32 -14 0 -11 7 -25 15 -32 8 -7 15 -18 15 -25
0 -20 32 -78 62 -113 15 -18 34 -47 42 -65 7 -18 33 -51 56 -74 41 -39 43 -44
31 -67 -7 -13 -10 -29 -6 -36 7 -12 110 -60 129 -60 6 0 22 -9 36 -20 29 -23
77 -25 103 -6 14 11 27 12 50 5 18 -5 52 -9 77 -8 25 1 63 -4 85 -11 110 -35
107 -33 120 -75 7 -22 20 -57 29 -77 14 -34 20 -38 51 -38 35 0 43 8 26 26 -5
5 -12 19 -16 32 -10 33 13 28 33 -8 22 -38 56 -52 118 -48 l49 3 -65 62 c-36
35 -68 63 -72 63 -4 0 -12 10 -19 21 -13 25 1 39 37 39 12 0 38 7 59 16 35 14
37 17 22 32 -14 13 -22 14 -49 4 -18 -6 -59 -14 -90 -18 -53 -6 -58 -5 -58 13
0 26 23 73 36 73 5 0 36 32 68 70 51 63 60 69 84 63 37 -9 154 -62 172 -78 8
-7 46 -25 84 -39 37 -14 90 -42 116 -61 26 -19 50 -35 53 -35 9 0 112 -64 115
-72 2 -5 14 -8 27 -8 15 0 48 -25 98 -75 75 -73 77 -75 127 -75 27 0 50 3 50
8 0 7 -54 63 -152 156 -26 25 -75 59 -110 75 -69 33 -78 39 -155 94 -29 20
-57 37 -63 37 -5 0 -10 4 -10 9 0 4 -20 14 -44 21 -25 7 -54 21 -65 31 -11 10
-25 19 -31 19 -19 0 -96 38 -109 54 -7 9 -29 19 -49 22 -28 5 -56 26 -115 85
-43 43 -86 81 -97 84 -22 7 -50 58 -50 90 0 12 -6 41 -14 66 -22 73 -36 142
-37 184 0 22 -1 54 -2 70 0 17 1 46 4 65 3 30 1 35 -16 35 -11 0 -24 -10 -30
-23 -12 -27 -42 -23 -83 9 -14 10 -33 19 -42 19 -10 0 -23 7 -31 16 -7 8 -31
25 -53 36 -23 11 -53 32 -67 47 -43 43 -122 107 -155 124 -55 28 -124 107
-125 141 -1 43 -19 87 -53 129 -31 38 -52 51 -61 37z m306 -437 c21 -16 39
-35 39 -45 0 -9 13 -21 31 -27 16 -6 49 -23 72 -38 23 -16 67 -41 98 -56 77
-37 95 -60 104 -132 4 -32 15 -91 25 -130 10 -38 16 -74 13 -78 -3 -4 -17 0
-32 10 -16 10 -50 32 -77 50 -27 18 -72 57 -99 88 -28 31 -68 67 -90 81 -22
13 -55 39 -74 59 -19 19 -39 35 -46 35 -6 0 -24 13 -40 30 -27 28 -28 30 -15
77 14 52 37 103 46 103 3 0 23 -12 45 -27z m-70 -223 c11 0 40 -19 64 -42 25
-24 61 -56 80 -73 19 -16 35 -34 35 -38 0 -9 -55 0 -80 14 -8 4 -33 16 -55 25
-128 54 -124 50 -105 99 7 19 15 25 26 21 9 -3 24 -6 35 -6z m-76 -10 c3 -5 1
-19 -5 -29 -9 -18 -14 -19 -35 -9 -31 14 -32 26 -2 38 29 12 35 12 42 0z m60
-148 c28 -10 60 -23 72 -30 12 -7 27 -12 32 -12 6 0 34 -11 63 -25 28 -14 57
-25 64 -25 6 0 17 -6 23 -14 6 -7 26 -16 43 -20 17 -3 37 -15 45 -26 8 -11 20
-20 27 -20 26 0 131 -94 121 -109 -3 -6 -2 -18 3 -28 15 -28 32 -88 32 -109 0
-11 -6 -29 -14 -39 -8 -11 -17 -50 -21 -86 -4 -36 -11 -72 -15 -79 -5 -7 -32
-15 -62 -18 -51 -4 -55 -2 -100 38 l-46 42 20 49 c17 41 19 51 7 65 -12 14
-16 10 -39 -37 -21 -45 -30 -55 -54 -57 -36 -4 -46 10 -46 71 0 41 -3 48 -17
45 -15 -3 -19 -16 -21 -75 -3 -63 -5 -72 -25 -77 -89 -24 -154 25 -172 129
-20 119 -27 291 -16 358 21 123 15 117 96 89z m637 -359 c39 -43 41 -68 8
-116 -53 -78 -99 -100 -70 -34 8 18 15 64 15 105 0 80 7 87 47 45z"/>
<path d="M6052 1650 c-1 -14 3 -43 7 -65 l9 -40 0 35 c0 19 -4 49 -8 65 -7 27
-8 28 -8 5z"/>
<path d="M12681 1547 c-8 -11 -5 -17 15 -26 15 -6 35 -23 46 -36 25 -32 58
-33 58 -2 0 26 -59 77 -88 77 -11 0 -25 -6 -31 -13z"/>
<path d="M6071 1523 c-1 -12 4 -25 9 -28 12 -7 12 2 0 30 -8 19 -9 19 -9 -2z"/>
<path d="M7247 1499 c7 -7 15 -10 18 -7 3 3 -2 9 -12 12 -14 6 -15 5 -6 -5z"/>
<path d="M6090 1446 c0 -9 -6 -16 -12 -16 -9 0 -8 -4 2 -10 25 -16 39 -12 33
10 -7 25 -23 36 -23 16z"/>
<path d="M6225 1320 c3 -5 11 -10 16 -10 6 0 7 5 4 10 -3 6 -11 10 -16 10 -6
0 -7 -4 -4 -10z"/>
<path d="M6268 1303 c7 -3 16 -2 19 1 4 3 -2 6 -13 5 -11 0 -14 -3 -6 -6z"/>
<path d="M9584 656 c-7 -28 0 -169 10 -201 3 -11 2 -26 -3 -34 -8 -12 -12 -12
-25 -2 -33 28 -49 -16 -20 -57 9 -13 14 -28 11 -35 -2 -7 -1 -39 4 -72 8 -64
-4 -158 -27 -212 -19 -43 -19 -43 30 -43 37 0 44 3 49 23 49 229 52 286 24
477 -9 58 -17 120 -19 139 -4 42 -25 52 -34 17z"/>
<path d="M8590 620 c0 -18 77 -47 158 -60 l79 -13 77 -75 c56 -54 76 -80 74
-96 -2 -15 3 -22 20 -24 23 -4 25 -10 23 -77 -2 -58 15 -138 44 -200 14 -31
25 -60 25 -65 0 -6 18 -10 40 -10 l41 0 -24 42 c-53 96 -73 214 -42 240 43 36
45 40 43 86 -3 42 -6 47 -28 50 -89 9 -135 38 -268 165 -42 40 -44 41 -58 23
-14 -19 -14 -19 -37 2 -27 25 -39 27 -66 10 -15 -9 -25 -9 -46 0 -31 15 -55
15 -55 2z"/>
<path d="M11905 320 c-3 -5 25 -41 62 -79 64 -66 84 -88 148 -167 14 -18 25
-41 25 -53 0 -19 6 -21 56 -21 l56 0 -56 53 c-31 29 -56 57 -56 63 0 5 -12 22
-27 36 -38 37 -63 66 -64 76 -1 10 -116 102 -128 102 -5 0 -13 -4 -16 -10z"/>
<path d="M9483 138 c-15 -24 -33 -83 -33 -110 0 -21 5 -28 20 -28 15 0 20 7
20 29 0 17 5 33 10 36 6 3 10 24 10 46 0 39 -12 50 -27 27z"/>
<path d="M12250 113 c0 -47 39 -113 67 -113 23 0 31 14 13 25 -5 3 -16 20 -25
38 -8 18 -24 43 -35 57 l-20 25 0 -32z"/>
</g>
</svg>
